<svg version="1.1" id="Layer_1" xmlns="http://www.w3.org/2000/svg" xmlns:xlink="http://www.w3.org/1999/xlink" x="0px" y="0px"
	 width="100%" viewBox="0 0 375 426" enable-background="new 0 0 375 426" xml:space="preserve">
<path fill="#000103" opacity="1.000000" stroke="none" 
	d="
M1.324337,163.226517 
	C1.000000,110.366966 1.033035,57.733860 0.918957,5.101075 
	C0.912021,1.900847 1.260980,0.889211 4.894104,0.893036 
	C127.315742,1.021923 249.737564,1.023672 372.159180,0.887779 
	C375.901581,0.883625 376.079071,2.065030 376.072327,5.154353 
	C375.968658,52.790291 376.000000,100.426521 376.000000,148.531342 
	C374.209076,150.364944 372.841156,149.154663 371.570740,148.145721 
	C360.114563,139.047607 351.736877,128.173904 351.344940,112.743225 
	C351.260529,109.419212 349.958374,106.620087 347.555878,104.337624 
	C342.230804,99.278610 337.227448,93.986374 334.328674,87.057594 
	C333.819458,85.840401 332.944580,84.749550 331.899628,83.923882 
	C320.402802,74.839531 310.563843,64.061958 300.630157,53.380486 
	C298.786255,51.397766 296.640594,49.881596 293.722412,48.832184 
	C291.989105,47.538738 290.330292,47.429142 288.649048,47.418480 
	C286.763733,47.406525 284.837036,47.002365 283.448700,45.885288 
	C278.397827,41.821266 272.907501,39.325470 266.289948,38.928185 
	C263.068848,38.734810 260.748718,35.936024 258.699524,33.542015 
	C252.929047,26.800537 246.201553,22.303957 236.882828,22.243830 
	C232.813766,22.217575 229.145477,20.237745 226.318298,17.168200 
	C223.285904,13.875854 219.630066,12.636224 215.167725,12.656648 
	C193.017212,12.758031 170.865707,12.749925 148.715073,12.662177 
	C144.456238,12.645307 140.961075,13.790729 137.971359,16.909296 
	C132.415756,22.704336 126.155388,27.099564 117.564987,26.960897 
	C114.200172,26.906582 111.615540,29.041731 109.497993,31.467724 
	C103.532745,38.301884 96.367332,43.012691 87.512825,45.437340 
	C80.839005,47.264847 76.075310,52.142788 71.904106,57.429993 
	C64.769409,66.473572 56.185772,74.101334 48.006603,82.115669 
	C44.773735,85.283386 42.206631,88.705833 41.984940,93.237038 
	C41.735943,98.326424 39.411736,102.130501 35.672291,105.201233 
	C30.042923,109.823891 26.935461,115.388832 27.542349,122.962944 
	C27.918234,127.654083 24.952263,131.167328 21.700058,134.108322 
	C17.148256,138.224594 14.441813,142.838211 14.474037,149.289688 
	C14.502505,154.989151 7.410364,162.205872 1.324337,163.226517 
z"/>
<path fill="#010207" opacity="1.000000" stroke="none" 
	d="
M375.663300,385.772125 
	C376.000000,398.821747 375.943085,411.644012 376.057739,424.464722 
	C376.076172,426.527039 375.750671,427.450043 373.534485,427.024780 
	C372.731476,426.870697 371.874084,427.000000 371.041504,427.000000 
	C249.318130,427.000000 127.594696,426.964539 5.871564,427.137939 
	C1.307333,427.144440 0.871942,425.783142 0.908113,421.879547 
	C1.102507,400.900330 1.000000,379.918335 1.000000,358.468658 
	C3.647432,356.493073 5.045695,358.551849 6.398039,360.096222 
	C12.343471,366.885651 18.915174,372.880554 26.638891,377.655304 
	C29.645926,379.514221 32.916210,380.503845 36.019096,381.938446 
	C45.912285,386.512512 56.734482,387.510162 66.947746,390.791565 
	C77.730377,394.255890 88.690758,395.381836 99.321289,389.788818 
	C100.646400,389.091705 102.087326,388.523987 103.559731,388.362152 
	C113.763237,387.240723 123.843956,384.803162 134.620117,385.466980 
	C139.824127,385.931732 144.117386,385.135254 148.043625,381.857208 
	C151.417572,379.040283 155.515808,378.858337 159.090347,381.784454 
	C163.946671,385.759827 169.033752,386.479279 174.927017,384.319153 
	C179.232498,382.741058 183.765488,382.913361 188.161240,384.533813 
	C191.639099,385.815948 195.255997,386.232483 198.952637,386.272003 
	C206.721008,386.354980 213.267334,389.099030 218.013458,395.455017 
	C220.805939,399.194702 224.520065,400.982635 229.127777,401.209900 
	C237.379257,401.616852 244.775864,405.721161 252.882324,406.783447 
	C253.208328,406.826141 253.576721,406.942169 253.793167,407.172333 
	C260.898743,414.730194 270.192230,413.143036 279.079285,413.223724 
	C281.078003,413.241852 283.073517,413.246155 285.466919,413.485901 
	C293.848480,413.804291 301.805481,414.427521 309.806152,414.320221 
	C314.529541,414.256897 318.645416,413.240448 322.161011,409.958221 
	C325.464569,406.873962 329.507996,405.341095 333.998505,405.329956 
	C341.506287,405.311340 348.326630,402.494049 355.287628,400.287872 
	C358.608612,399.235352 360.462219,396.240967 362.746948,393.829315 
	C366.278748,390.101318 369.889313,386.413361 375.663300,385.772125 
z"/>
<path fill="#000108" opacity="1.000000" stroke="none" 
	d="
M1.000000,163.468658 
	C7.277830,158.721130 14.026463,154.867218 13.066301,145.476776 
	C12.669769,141.598679 14.544173,138.404510 17.562063,135.937561 
	C23.542545,131.048904 27.426998,125.355415 26.119455,117.011612 
	C25.622654,113.841393 27.272713,110.924934 29.801601,108.651680 
	C32.027767,106.650543 33.954243,104.311928 36.210804,102.349739 
	C38.892670,100.017715 40.189651,97.419991 40.129105,93.698875 
	C40.060089,89.457901 41.717888,85.508469 44.959404,82.584564 
	C55.911377,72.705688 66.045502,62.041946 75.619766,50.842335 
	C78.787704,47.136597 82.944641,44.607273 87.350716,43.592262 
	C95.943031,41.612877 102.497269,36.980896 107.978889,30.475594 
	C111.343567,26.482567 115.406731,24.682138 120.661858,24.944120 
	C126.467979,25.233572 130.925751,21.827175 134.378052,17.889957 
	C139.087433,12.519104 144.356857,10.705417 151.449509,10.846045 
	C172.924103,11.271821 194.413223,11.091043 215.894989,10.925893 
	C220.380280,10.891411 224.095627,11.806280 226.916885,15.414727 
	C230.177643,19.585331 234.774384,20.808447 239.728485,20.970285 
	C245.988541,21.174784 251.372925,23.042992 255.550995,27.986414 
	C257.586304,30.394560 260.044312,32.440269 262.214386,34.741184 
	C264.412811,37.072205 266.999268,38.312317 270.223236,37.992119 
	C274.306732,37.586563 277.647980,38.770180 280.489594,41.896389 
	C283.033112,44.694679 286.345215,46.197708 290.285431,46.024704 
	C291.564606,45.968540 293.022461,45.722038 293.895386,47.628990 
	C292.868774,49.476425 291.204742,49.720181 289.543945,49.779224 
	C279.432343,50.138721 269.335815,50.014053 259.294586,48.581062 
	C257.286835,48.294533 255.263458,47.670078 253.877838,46.263676 
	C249.917892,42.244267 244.944336,41.590160 239.315643,41.469322 
	C228.493393,37.934883 217.240051,37.749401 207.042709,33.405899 
	C202.192612,31.340023 197.328598,30.567047 191.955917,31.358746 
	C185.708130,32.279392 179.313217,31.583452 172.982895,31.667664 
	C170.817612,31.696466 168.480270,31.257200 166.538605,32.140640 
	C158.947861,35.594345 150.428085,37.014919 143.258270,40.836868 
	C133.640686,45.963612 123.619606,49.884182 113.662346,54.071415 
	C110.450104,55.422222 107.956467,57.206612 106.361679,60.430851 
	C104.638000,63.915699 101.589104,66.414688 98.797699,69.018982 
	C90.284119,76.961853 83.507332,86.009613 79.215088,96.969864 
	C76.618561,103.600113 71.500122,108.609322 66.392174,113.407539 
	C60.858402,118.605774 56.384064,124.338425 53.468670,131.506180 
	C49.455887,141.371933 43.833557,150.512848 39.624084,160.318176 
	C38.307926,163.383972 36.718204,166.357635 34.642780,168.966675 
	C26.212669,179.564240 20.883825,191.665527 17.080736,204.534760 
	C15.702350,209.199051 13.779228,213.633499 11.028290,217.648727 
	C7.797733,222.363983 6.293057,227.489624 6.630620,233.209595 
	C6.778150,235.709473 6.543158,238.229736 5.582291,240.583939 
	C4.839304,242.404312 4.247502,244.482635 1.319315,244.218994 
	C1.000000,217.312439 1.000000,190.624878 1.000000,163.468658 
z"/>
<path fill="#000110" opacity="1.000000" stroke="none" 
	d="
M135.247559,386.707672 
	C124.524406,386.644073 114.302299,388.945618 103.962799,390.026337 
	C102.827644,390.144989 101.631416,390.460266 100.634270,390.999878 
	C88.236931,397.709290 75.813530,396.146332 63.332081,391.286591 
	C61.800983,390.690399 60.122002,389.995056 58.546249,390.070465 
	C48.425205,390.555023 40.073776,384.558167 30.773565,382.097046 
	C24.887514,380.539459 19.023981,375.574860 14.195704,370.697845 
	C10.031336,366.491516 5.857049,362.294983 1.343572,358.047058 
	C1.000000,331.312439 1.000000,304.624878 1.000000,277.468658 
	C2.932340,273.015228 4.262919,268.742371 5.856400,264.658966 
	C8.217407,258.608673 10.839948,252.634689 13.886856,247.032455 
	C18.753105,238.085037 20.163984,228.151291 23.409348,218.772552 
	C26.396812,210.139114 29.776524,201.684464 33.181908,193.234726 
	C34.666859,189.550110 37.533417,186.556488 39.820316,183.316254 
	C43.135208,178.619446 45.785259,173.749908 47.235706,168.200577 
	C49.631096,159.035965 55.639767,151.290009 57.497059,141.871872 
	C58.080673,138.912430 60.430954,136.698120 62.585087,134.587250 
	C66.748558,130.507446 70.740166,126.277756 74.408081,121.736496 
	C76.640846,118.972107 78.367943,115.992554 79.256981,112.543716 
	C79.714851,110.767509 79.970886,108.763245 81.205345,107.451752 
	C89.477821,98.662971 93.648804,87.197701 100.804436,77.694031 
	C101.004700,77.428047 101.181107,77.126991 101.436668,76.923470 
	C110.731567,69.521484 119.542839,61.461243 130.028854,55.670948 
	C135.122086,52.858505 140.311218,50.228752 145.657944,47.915676 
	C147.182144,47.256287 148.595871,46.127567 150.229889,45.963783 
	C161.205063,44.863728 171.900940,40.900177 183.126022,42.518173 
	C186.542709,43.010658 190.741531,42.768311 191.231201,48.122730 
	C188.399307,50.418079 185.271683,51.202854 182.166214,51.425499 
	C176.952347,51.799305 172.059219,53.235588 166.808655,55.023445 
	C162.144150,55.714340 157.887634,56.387688 153.649979,57.319771 
	C149.836899,58.158478 146.025299,59.133434 143.060028,61.523048 
	C130.339493,71.774117 116.018539,79.988045 106.693108,94.379318 
	C98.268906,107.379753 88.972275,119.754776 83.156258,134.276993 
	C81.673645,137.979004 79.631218,141.448029 77.512352,144.846283 
	C72.215599,153.341278 67.503716,162.128464 64.029404,171.549301 
	C58.813801,185.691772 49.426220,197.721115 43.620979,211.546753 
	C37.948677,225.055756 31.788303,238.315842 25.148869,251.374252 
	C23.042952,255.516159 22.086048,260.230682 21.272648,264.771790 
	C20.106466,271.282379 17.592491,277.157776 14.835455,283.058746 
	C11.155434,290.935242 8.057054,299.016541 8.589449,307.989410 
	C8.687948,309.649506 8.438307,311.335846 8.029701,312.944702 
	C5.305310,323.671509 7.510637,333.857056 11.943224,343.558563 
	C16.515469,353.565704 24.379326,360.883179 33.856396,366.072968 
	C42.949364,371.052429 52.615532,374.709808 63.438469,373.388458 
	C67.095528,372.941986 70.761520,373.769714 74.334648,374.550934 
	C87.146461,377.352020 99.393578,374.518951 111.581062,370.998840 
	C113.017281,370.584015 114.421463,369.681763 115.880348,369.765411 
	C124.392960,370.253571 130.685791,365.239014 137.190872,361.057098 
	C144.185059,356.560791 151.525375,352.560303 157.981628,347.242401 
	C159.140305,346.287994 160.462006,345.555542 162.361450,345.240540 
	C162.997620,345.262787 163.248260,345.310455 163.831970,345.540405 
	C166.086197,351.081238 162.250793,354.144257 159.121979,357.068481 
	C156.745163,359.289886 154.498947,361.262695 154.030365,364.635406 
	C153.962814,365.121643 153.811630,365.735352 153.451187,365.989105 
	C148.112808,369.748291 145.752426,376.629181 139.502594,379.379150 
	C137.238678,380.375305 136.032867,381.813049 136.210236,384.693787 
	C136.036621,385.565582 135.813171,386.014709 135.247559,386.707672 
z"/>
<path fill="#020407" opacity="1.000000" stroke="none" 
	d="
M237.780716,40.296356 
	C244.317184,39.744541 250.151947,39.831955 255.372650,44.942459 
	C259.580414,49.061424 266.129120,47.301807 271.599243,47.831661 
	C278.692596,48.518742 285.902802,47.999714 293.531342,47.999794 
	C300.893616,48.129551 303.578369,54.127838 307.291504,58.185856 
	C314.771729,66.360878 322.711639,73.985977 331.211700,81.040779 
	C333.183655,82.677437 335.158539,84.372185 335.991394,86.647034 
	C338.556549,93.653610 343.801361,98.482544 348.955750,103.387688 
	C351.250183,105.571213 353.068665,108.122940 352.847168,111.139664 
	C352.468719,116.293282 354.255371,120.947151 355.495911,125.681862 
	C357.402985,132.960724 363.292328,137.712540 367.934601,143.170166 
	C369.910919,145.493607 372.824921,147.019470 375.656372,148.953903 
	C376.000000,173.020889 376.000000,197.041794 376.000000,221.531342 
	C374.126526,223.330139 372.833557,222.059418 371.827209,220.818298 
	C367.304810,215.240891 362.289062,209.980759 359.727417,202.658112 
	C360.018036,195.933334 357.589722,190.640366 353.505035,185.939240 
	C351.179657,183.262909 349.489624,180.239227 348.956787,176.660660 
	C348.472931,173.410751 346.573975,170.920670 344.700836,168.339600 
	C338.950073,160.415344 333.056366,152.640610 329.294891,143.393082 
	C322.082611,125.661888 310.158600,111.249458 295.996521,98.639938 
	C288.155518,91.658508 283.383179,82.447701 277.343445,74.148193 
	C272.745361,67.829758 268.020081,61.682091 260.357056,58.507690 
	C256.228546,56.797447 253.131104,53.214439 248.898148,50.804382 
	C246.589981,48.071732 244.001663,46.324749 241.198212,44.798012 
	C239.514343,43.880993 237.398270,43.175743 237.780716,40.296356 
z"/>
<path fill="#00020C" opacity="1.000000" stroke="none" 
	d="
M237.632843,39.949928 
	C238.453506,42.683521 241.001877,42.849503 242.781509,43.848698 
	C245.249725,45.234493 247.865463,46.358238 248.952820,49.654140 
	C247.128281,51.850307 245.002335,51.202507 242.978806,50.471634 
	C237.616333,48.534771 232.058243,47.839912 226.420685,47.957901 
	C219.145264,48.110168 211.897827,47.385509 204.629425,47.484257 
	C202.652863,47.511108 200.636108,47.343212 198.494308,48.835762 
	C195.889816,49.785091 193.733154,49.942513 191.326050,48.346962 
	C190.850174,46.409122 189.716080,45.576710 188.395340,45.329178 
	C181.835220,44.099693 175.299362,41.769558 168.635895,45.121628 
	C165.044937,46.928059 161.083435,45.839970 157.297318,45.993141 
	C150.882462,46.252655 145.474136,49.524479 140.183685,52.316978 
	C132.686508,56.274288 124.020660,58.586349 118.532753,65.907936 
	C115.544090,69.895195 110.007622,70.505295 106.713142,73.942947 
	C100.690254,80.227562 94.892372,86.796692 92.600288,95.586189 
	C92.395424,96.371811 92.053345,97.295174 91.465988,97.781021 
	C84.695175,103.381821 81.745323,111.167793 78.257210,118.916489 
	C75.280205,125.529800 69.324326,130.388687 64.032097,135.433365 
	C60.550301,138.752319 57.885418,142.337341 57.827103,147.462601 
	C57.809063,149.048019 57.256126,150.913010 56.302826,152.154541 
	C51.123749,158.899597 49.621403,167.117371 46.939159,174.850357 
	C45.100292,180.151871 41.497215,184.564148 38.182774,188.618881 
	C33.821316,193.954468 31.999601,200.317993 29.551001,206.120590 
	C26.055157,214.404861 23.004751,223.170990 21.112226,232.072723 
	C19.261395,240.778351 14.960298,248.240295 11.112693,256.026550 
	C8.300015,261.718506 6.236636,267.783020 3.894931,273.703461 
	C3.402044,274.949646 3.116962,276.267700 1.353463,276.921692 
	C1.000000,266.312439 1.000000,255.624878 1.000000,244.468658 
	C4.899314,242.186951 5.177927,238.426483 4.880268,235.111816 
	C4.166917,227.168106 6.663648,220.455582 11.177780,214.153854 
	C12.505594,212.300201 13.508373,210.076416 14.123066,207.872482 
	C17.123976,197.112991 21.894085,187.086517 26.499378,176.977890 
	C27.859905,173.991516 30.630465,172.260925 32.318111,169.553375 
	C40.780247,155.977295 46.772469,141.163864 53.781273,126.866226 
	C55.492542,123.375313 57.249409,120.171310 60.018463,117.409996 
	C64.718773,112.722816 69.643143,108.258217 73.719276,102.936607 
	C75.468880,100.652405 77.136269,98.353546 78.060608,95.723610 
	C81.784500,85.128517 88.494263,76.696167 96.421532,68.978767 
	C100.293808,65.209007 104.991119,62.002033 106.563614,56.286102 
	C106.914375,55.011139 108.362556,54.503445 109.621048,53.932232 
	C120.628517,48.936047 131.766357,44.024551 142.813690,39.362854 
	C154.564758,34.404202 166.694504,27.510954 180.815903,29.844311 
	C185.788010,30.665878 191.061661,30.349951 196.175385,29.116402 
	C199.740631,28.256380 203.162506,29.893604 206.261322,31.332403 
	C213.162399,34.536621 220.519562,35.817280 227.889694,36.788227 
	C231.347504,37.243763 234.129135,38.926929 237.632843,39.949928 
z"/>
<path fill="#050709" opacity="1.000000" stroke="none" 
	d="
M376.000000,385.531342 
	C371.594574,388.811035 366.819183,391.027954 363.601593,395.523041 
	C360.772705,399.475067 357.066376,401.882965 351.986938,403.314087 
	C345.086121,405.258331 338.335175,406.953033 331.145508,407.283173 
	C328.062500,407.424744 325.161499,409.046356 322.898773,411.543671 
	C319.951233,414.796814 316.215607,416.159546 311.738861,416.050629 
	C303.443634,415.848816 295.126434,416.313324 286.439392,415.000000 
	C284.354004,413.608246 282.457825,412.552063 280.940948,410.971069 
	C277.280304,407.155823 272.531799,406.490143 267.586670,406.735809 
	C259.775665,407.123901 252.185120,406.048798 245.392502,402.152252 
	C239.386353,398.706879 234.463821,394.074738 234.597534,385.974884 
	C236.634140,384.297150 238.636520,384.740479 240.609543,385.018005 
	C245.399307,385.691833 250.137726,386.618683 254.796112,387.937164 
	C259.950256,389.395935 265.188629,390.326843 270.564270,390.229340 
	C274.307190,390.161438 277.946747,390.705200 281.142303,392.674469 
	C288.134216,396.983337 295.463593,396.635315 302.834259,394.288208 
	C314.419067,390.599152 326.394531,388.738678 338.255798,386.338715 
	C343.462952,385.285126 348.186371,383.517181 351.426941,378.474792 
	C352.602600,376.006012 354.052826,374.291687 356.440430,372.977905 
	C357.625977,372.527771 358.512695,372.278595 359.389191,371.314453 
	C360.366180,370.522888 361.171692,370.108459 362.354340,369.696655 
	C366.772736,368.787994 368.161469,365.479004 369.616577,361.820557 
	C369.925659,360.795441 370.298859,360.194489 371.051636,359.415802 
	C372.615814,358.547394 373.821533,357.683228 375.673706,357.843079 
	C376.000000,367.020905 376.000000,376.041779 376.000000,385.531342 
z"/>
<path fill="#06080C" opacity="1.000000" stroke="none" 
	d="
M360.748749,201.734756 
	C364.153717,209.796829 369.385040,216.100113 375.656677,221.951080 
	C376.000000,238.687561 376.000000,255.375122 376.000000,272.531342 
	C372.040009,274.211792 371.784210,270.757751 370.825012,268.617615 
	C369.211243,265.017059 368.634430,261.068054 366.769836,257.466187 
	C359.578247,243.573929 354.119690,228.836334 346.160950,214.893433 
	C343.351227,208.812180 340.629456,203.111176 336.824371,198.003647 
	C331.543304,190.914978 326.964996,183.505798 323.573456,175.219467 
	C320.478149,167.657013 314.911804,161.451981 309.537537,155.297073 
	C308.003571,153.540298 306.337250,151.903931 305.112854,149.459167 
	C299.632782,139.196564 294.814728,128.991394 288.814667,119.431236 
	C285.021149,113.386856 281.981750,106.909470 278.117432,100.905479 
	C277.485809,99.924164 277.143280,98.790840 277.571411,97.242981 
	C280.220917,95.509323 281.268616,97.497887 282.631195,98.918991 
	C288.827332,105.381241 294.433746,112.380623 300.878235,118.625999 
	C304.605530,122.238106 306.782318,127.043335 309.418304,131.451431 
	C312.260986,136.205170 315.015320,140.902512 320.373474,143.333130 
	C321.894104,144.022903 323.060974,145.338898 323.884338,146.804520 
	C329.038025,155.978317 336.965851,162.581726 344.708740,169.353577 
	C346.374329,170.810287 347.759064,172.377136 348.274048,174.613388 
	C350.525818,184.391708 354.761414,193.274063 360.748749,201.734756 
z"/>
<path fill="#0C0E11" opacity="1.000000" stroke="none" 
	d="
M375.756927,306.703491 
	C376.000000,319.020905 376.000000,331.041779 376.000000,343.531342 
	C369.081421,355.884247 358.968079,364.711670 348.269379,372.978210 
	C346.011444,374.722870 343.539642,376.006042 340.786896,376.850159 
	C319.288574,383.442474 297.523132,383.091492 275.622070,379.461517 
	C274.464966,379.269714 273.374969,378.862335 272.004639,378.055817 
	C270.203796,375.966309 268.454254,374.754333 266.028107,374.223175 
	C263.166718,373.596710 261.328644,371.850128 262.480347,368.166199 
	C265.222321,366.285767 267.581970,367.555054 269.858490,368.402924 
	C285.176422,374.107971 300.841797,374.685883 317.010620,373.124207 
	C332.975494,371.582214 345.772705,364.724121 356.781555,353.638489 
	C363.942261,346.427826 366.702545,337.535461 367.596039,327.598480 
	C368.741425,314.860413 366.319366,302.927551 361.859467,291.070282 
	C357.526276,279.549957 353.992584,267.728729 349.739471,256.166107 
	C348.991272,254.131989 348.341766,252.022430 347.174713,250.211243 
	C339.121765,237.713730 334.416748,223.478973 326.667847,210.826294 
	C325.360809,208.692123 324.357025,206.396347 323.957672,203.477356 
	C324.010712,202.244537 324.292084,201.502579 325.172974,200.645081 
	C327.530365,199.687759 329.104828,200.621597 330.416718,201.971100 
	C332.860565,204.485046 335.413422,207.149414 336.120972,210.613968 
	C337.681702,218.256378 341.924286,224.291397 346.940887,230.409714 
	C347.427429,232.597977 348.429260,234.157883 349.267242,235.767548 
	C359.035889,254.532867 365.704926,274.569977 373.330048,294.216156 
	C374.861725,298.162537 374.525574,302.391937 375.756927,306.703491 
z"/>
<path fill="#090B0E" opacity="1.000000" stroke="none" 
	d="
M271.709900,376.745331 
	C295.560913,381.625519 319.035217,381.981354 342.129639,374.640625 
	C347.293640,372.999176 351.420807,368.918610 355.292999,365.101227 
	C361.386597,359.093994 368.363312,353.853821 372.581909,346.114655 
	C373.136230,345.097717 374.088928,344.347839 375.654724,344.047485 
	C376.000000,348.024536 376.000000,352.049103 376.000000,356.536804 
	C374.834717,357.878235 373.369476,358.338440 372.222107,359.775635 
	C371.687347,360.471924 371.374695,360.943848 371.031006,361.707886 
	C368.500519,364.846832 367.232971,368.779846 363.241882,370.762451 
	C362.194489,371.246796 361.388947,371.493591 360.291718,371.870789 
	C359.475403,372.543030 358.929901,373.063812 358.197449,373.797607 
	C355.635406,374.109894 354.682892,375.985382 353.256409,377.794434 
	C347.253601,385.496521 338.444336,386.086151 330.261169,387.975525 
	C313.116638,391.933990 295.678162,391.970825 278.747314,388.154816 
	C268.001892,385.732910 257.032654,383.142334 246.756516,378.691010 
	C242.981354,377.055725 240.067490,374.306366 237.401123,371.323334 
	C233.507858,366.967712 229.593658,362.667206 224.755722,359.311615 
	C223.656738,358.549377 222.691757,357.605743 222.523865,355.766876 
	C224.325516,353.233887 226.226135,354.532196 227.983429,355.245880 
	C231.870636,356.824554 235.372070,359.112518 238.464050,361.913757 
	C243.540375,366.512878 249.506180,369.197571 256.066559,370.845764 
	C261.375183,372.179474 266.552704,373.927887 271.709900,376.745331 
z"/>
<path fill="#090B0E" opacity="1.000000" stroke="none" 
	d="
M376.000000,306.531342 
	C374.620270,306.779419 374.226501,305.882324 373.997192,304.580933 
	C372.004730,293.273224 367.481140,282.819672 363.199341,272.258636 
	C360.287750,265.077271 356.701904,258.144196 354.891815,250.521790 
	C353.999756,246.765320 351.529114,243.723389 349.755310,240.363510 
	C348.299622,237.606155 346.402496,234.993103 346.009583,231.376709 
	C348.007568,229.768478 348.605530,228.272827 347.269867,226.077896 
	C345.899231,223.825500 344.384216,221.553360 344.027161,218.884232 
	C343.738556,216.726440 342.883026,214.051697 346.735504,213.784149 
	C351.231384,222.514755 357.650146,229.893021 359.525665,239.659378 
	C360.457092,244.509430 364.199280,248.349243 366.510193,252.658249 
	C370.030182,259.221649 370.058319,267.195679 375.654907,272.928528 
	C376.000000,284.020905 376.000000,295.041779 376.000000,306.531342 
z"/>
<path fill="#06080C" opacity="1.000000" stroke="none" 
	d="
M372.323120,359.961731 
	C372.171539,357.993500 373.305298,357.044006 375.638977,357.007996 
	C376.000000,357.000000 376.000000,357.500000 376.000000,357.750000 
	C374.882080,358.641144 373.764191,359.282288 372.323120,359.961731 
z"/>
<path fill="#020407" opacity="1.000000" stroke="none" 
	d="
M235.224731,385.696899 
	C236.837952,392.639557 240.322311,397.956512 246.732162,401.083801 
	C253.817963,404.540924 261.303406,405.505676 269.061981,404.997681 
	C276.676392,404.499084 282.119934,407.905640 285.954224,414.657318 
	C277.724762,414.549347 269.367554,416.045441 261.166382,414.005127 
	C259.742828,413.651001 258.102722,413.258698 257.087128,412.317871 
	C249.467224,405.259094 239.344864,405.368744 230.164001,403.253540 
	C224.631073,401.978821 219.716736,401.285004 216.266815,396.056519 
	C212.528732,390.391296 206.609756,388.038727 199.929321,388.052246 
	C195.043243,388.062103 190.418488,387.400452 185.832245,385.572632 
	C181.796387,383.964264 177.465240,384.851593 173.647202,386.402130 
	C167.983505,388.702118 163.324036,387.676331 159.037277,383.665710 
	C155.740005,380.580841 152.019379,380.227051 148.803665,383.239288 
	C144.995453,386.806580 140.657532,387.345001 135.447723,387.000000 
	C135.002380,386.555267 135.001709,386.110565 135.001129,385.332306 
	C142.483292,381.478912 149.117386,376.439636 156.610428,372.940857 
	C157.361084,372.590363 158.146774,372.201599 158.955551,372.134247 
	C166.912704,371.471741 174.361969,369.658813 181.322952,365.272522 
	C188.030518,361.045807 196.081024,362.321350 204.002563,361.703491 
	C205.198807,361.954224 206.074661,362.141937 206.675034,362.666718 
	C214.747711,369.723541 224.861176,373.847076 232.898102,380.942139 
	C234.231003,382.118805 235.841202,383.200287 235.224731,385.696899 
z"/>
<path fill="#000114" opacity="1.000000" stroke="none" 
	d="
M163.223709,345.678802 
	C155.584595,350.716339 148.687531,356.199951 141.017334,360.553345 
	C135.824280,363.500793 130.881012,366.887451 125.814842,370.059814 
	C124.175606,371.086304 122.318428,370.954163 120.483475,371.021667 
	C118.667793,371.088470 116.633072,370.852417 115.083321,371.578827 
	C105.078262,376.268585 94.172043,376.383057 83.568787,377.666779 
	C79.321014,378.181030 74.794388,376.369049 70.391304,375.636353 
	C68.923721,375.392120 67.413254,374.901367 65.977356,375.050934 
	C54.668583,376.228973 44.218327,373.572021 34.329121,368.242371 
	C27.734501,364.688263 21.958532,360.197632 17.119490,354.377441 
	C13.240610,349.712097 10.417012,344.719391 8.317855,338.970520 
	C5.251699,330.573364 5.238143,322.310242 5.916637,313.548950 
	C6.999704,299.563477 10.327217,286.543274 17.145739,274.230316 
	C19.150337,270.610443 19.367563,265.958069 20.197353,261.738251 
	C22.768496,248.662933 31.072765,238.061691 35.577473,225.830612 
	C44.045803,202.837524 58.771729,182.872375 67.300827,159.853912 
	C70.092072,152.320877 75.279167,145.693878 79.182961,138.550018 
	C83.726601,130.235214 86.626572,121.077309 91.943871,113.157883 
	C101.009827,99.655357 109.056366,85.094048 122.017288,74.977043 
	C128.604492,69.835213 135.138611,64.363617 142.308487,59.951096 
	C149.221039,55.696934 157.017914,54.098656 165.556152,53.999859 
	C166.965195,54.810108 167.104553,55.873341 166.795349,57.416679 
	C162.814148,61.326168 157.688660,61.946140 153.058319,63.623631 
	C149.430710,64.937851 145.962997,66.414848 142.710236,68.503983 
	C131.419327,75.755722 121.739075,84.832329 113.127846,95.017105 
	C108.943001,99.966637 106.122849,105.954163 102.918655,111.552696 
	C96.061836,123.533295 89.209106,135.535370 82.653915,147.680237 
	C74.271194,163.210953 66.542519,179.104340 58.885853,195.010727 
	C51.454327,210.449387 44.567169,226.151947 39.112137,242.426071 
	C37.243587,248.000549 33.963593,252.861984 31.571413,258.178375 
	C24.792690,273.243378 18.200987,288.496582 14.971417,304.647491 
	C10.631350,326.351929 14.766882,345.224762 31.900640,358.051453 
	C37.070343,361.921600 43.084496,364.397614 49.299950,365.256744 
	C59.456108,366.660583 69.433441,369.082886 79.955032,368.536621 
	C100.929031,367.447784 120.914444,363.791077 138.522858,351.492126 
	C139.883560,350.541687 141.374512,349.770935 143.262100,348.946381 
	C148.101303,348.127228 151.224426,344.988831 154.834686,342.710449 
	C159.246796,339.925964 161.793716,340.773743 163.223709,345.678802 
z"/>
<path fill="#020612" opacity="1.000000" stroke="none" 
	d="
M165.966675,58.404091 
	C165.999054,56.932838 165.999420,55.866295 165.999588,54.399796 
	C170.570755,51.645741 175.297546,50.091736 180.551010,49.895218 
	C183.779922,49.774437 186.971954,48.667797 190.589966,48.001305 
	C193.041428,47.998955 195.083450,47.999130 197.563049,47.999046 
	C201.613754,46.133774 205.498032,46.740314 209.163177,47.299183 
	C225.506287,49.791233 240.506592,55.364826 253.162323,66.537537 
	C262.160675,74.481430 270.484039,82.933235 276.925690,93.119804 
	C277.549805,94.106743 278.215393,95.056396 278.140686,96.637970 
	C281.944885,104.080322 285.570770,111.362175 289.928558,118.175911 
	C293.523651,123.797150 296.999573,129.543945 299.459351,135.623276 
	C301.274323,140.109039 305.757294,143.073624 305.998718,148.615448 
	C305.387207,151.568787 307.688477,153.068085 308.286469,155.203690 
	C308.986053,157.702118 310.229858,160.243912 306.472900,161.849365 
	C303.451019,161.533859 302.115967,159.545227 301.038818,157.482254 
	C292.889801,141.875076 281.822845,128.329086 270.812561,114.762131 
	C265.757477,108.533234 262.654510,101.122658 257.718964,94.753204 
	C252.775848,88.373978 247.764465,82.324303 240.993073,77.286804 
	C233.813568,69.475662 224.455154,65.897339 215.144501,63.479748 
	C201.226257,59.865742 186.962646,56.754494 172.344879,60.295631 
	C170.132477,60.831585 167.665344,61.034035 165.966675,58.404091 
z"/>
<path fill="#02040E" opacity="1.000000" stroke="none" 
	d="
M205.275238,362.786560 
	C196.582108,363.958191 187.459122,362.806854 180.125076,367.370209 
	C175.731537,370.103882 171.725250,372.994202 166.610840,372.885132 
	C160.081558,372.745941 154.699844,375.201477 149.537415,378.684509 
	C147.486313,380.068390 145.512939,381.597870 143.348846,382.775635 
	C141.027313,384.039093 138.532333,384.998932 135.399689,384.997528 
	C133.020523,380.824310 134.958237,378.842773 138.904160,377.866852 
	C141.733704,377.167023 144.270889,376.274292 144.197556,372.447845 
	C144.155823,370.270264 146.462875,369.782623 148.058975,369.001495 
	C150.051971,368.026154 152.488724,366.979614 152.467407,364.678070 
	C152.423386,359.925232 155.420822,357.947540 158.727219,355.537048 
	C161.503311,353.513184 163.037064,350.162628 163.991531,346.370483 
	C170.547348,342.549957 176.765320,338.575378 182.984940,334.566742 
	C186.325974,332.413361 190.399673,332.956726 193.945236,334.877258 
	C196.721146,336.380920 199.654053,337.507904 202.787979,339.093506 
	C205.623581,342.997650 207.983215,346.790222 210.859924,350.258484 
	C214.187912,354.270782 213.553146,356.014832 208.421448,357.040985 
	C204.829926,357.759186 207.362885,361.197357 205.275238,362.786560 
z"/>
<path fill="#020612" opacity="1.000000" stroke="none" 
	d="
M203.309738,340.272339 
	C199.972458,339.809967 197.253662,338.750366 194.693680,337.158722 
	C189.400482,333.867676 185.521912,334.034119 180.693817,337.796204 
	C175.901291,341.530609 171.226959,345.461792 164.396210,345.999237 
	C163.833740,346.000946 163.666870,346.000641 163.249695,346.000183 
	C160.666733,341.677826 159.271378,341.417542 155.396591,344.085602 
	C152.057922,346.384521 149.507843,350.177856 144.389923,349.998077 
	C141.791534,347.383270 143.254486,345.268890 145.193649,343.591248 
	C153.408051,336.484558 160.389816,328.482056 164.817352,318.410553 
	C165.818710,316.132660 167.841995,314.536621 170.092438,313.335968 
	C171.541992,312.562653 173.060059,311.814026 173.879623,309.779175 
	C174.413116,309.072021 174.809174,308.763885 175.633270,308.432495 
	C185.397385,309.617493 191.997162,314.758331 196.771530,322.820160 
	C199.388000,327.238251 202.796234,331.161163 206.328735,334.917084 
	C207.687103,336.361359 209.392334,337.535431 209.481110,340.144623 
	C207.477249,342.720825 205.548767,341.842163 203.309738,340.272339 
z"/>
<path fill="#02060C" opacity="1.000000" stroke="none" 
	d="
M278.348145,97.050949 
	C272.702362,89.629623 267.542206,82.064583 261.027985,75.756355 
	C248.925995,64.037117 235.615036,54.198093 218.472763,50.810383 
	C211.981995,49.527660 205.669067,47.357807 198.459564,47.999168 
	C198.473907,45.659958 200.341232,45.976997 201.955154,46.016888 
	C214.071609,46.316357 226.210266,45.284664 238.313705,46.926495 
	C241.862274,47.407856 244.495193,50.360058 248.602783,49.998417 
	C250.175964,50.003769 251.327560,50.065922 252.293655,50.885220 
	C256.484558,54.439365 261.143158,57.198246 266.010986,59.775738 
	C271.550171,62.708721 274.824493,68.159592 278.496155,73.039093 
	C284.152039,80.555580 287.911407,89.578819 295.308655,95.677528 
	C303.960175,102.810303 310.938934,111.504494 318.064392,119.939285 
	C324.020050,126.989349 328.014252,135.697449 331.453979,144.320267 
	C334.916687,153.000656 340.763977,159.978424 346.021942,167.398178 
	C347.480927,169.457001 349.287750,171.436737 349.693512,173.818665 
	C350.652863,179.450165 353.638031,183.870026 357.074249,188.140198 
	C360.127350,191.934296 361.650543,196.203217 361.000000,201.561310 
	C355.968964,200.309601 354.275330,195.894989 352.773743,191.517563 
	C351.695374,188.373840 351.013916,185.159821 348.501770,182.685608 
	C347.741302,181.936600 347.044403,180.525604 347.191803,179.549744 
	C348.112366,173.455795 343.490387,171.334305 340.070343,167.688217 
	C334.248169,161.481247 326.610748,156.713409 323.162079,148.394608 
	C322.443878,146.662125 321.227936,145.003677 319.507507,144.463165 
	C314.032135,142.742996 311.337555,138.273193 308.992981,133.765732 
	C303.029358,122.300529 294.138000,113.302635 284.935242,104.595634 
	C282.500946,102.292450 282.027527,98.523186 278.348145,97.050949 
z"/>
<path fill="#06080C" opacity="1.000000" stroke="none" 
	d="
M203.009109,340.373474 
	C204.839890,340.153534 206.679764,340.304626 208.759827,340.228485 
	C209.552261,339.421265 210.237671,339.182953 211.385788,339.299805 
	C214.895462,342.644104 215.921799,347.307220 219.339081,350.797485 
	C220.234100,351.922333 220.571579,353.063965 221.937469,353.760315 
	C222.382339,354.090302 222.542496,354.245972 222.851028,354.702057 
	C223.089859,356.353577 224.112213,356.877655 225.082596,357.568848 
	C229.111176,360.438568 233.077988,363.268097 236.089417,367.422852 
	C242.886017,376.799866 252.962204,380.297363 263.908081,381.957794 
	C265.211548,382.155487 266.599762,382.278107 267.765594,382.825439 
	C280.463531,388.787292 294.117432,389.048035 307.639252,388.839142 
	C319.681061,388.653076 331.728516,387.383118 343.245270,383.144257 
	C346.585205,381.914917 349.299500,379.800964 352.651184,378.047913 
	C350.154602,384.438843 344.803894,387.389313 338.170898,387.899109 
	C333.618317,388.248993 329.459900,390.211273 325.132477,390.745667 
	C314.065521,392.112488 303.810608,396.824677 292.753815,397.976105 
	C288.570801,398.411682 284.906586,396.664398 281.438568,394.673340 
	C277.851654,392.614014 274.145782,391.701172 270.008636,391.967560 
	C261.378204,392.523224 253.451691,388.900085 245.137222,387.544891 
	C242.036270,387.039459 238.937805,386.518768 235.419098,386.002502 
	C233.118423,382.145905 229.745590,379.556244 226.241745,377.711548 
	C218.726471,373.755066 212.156891,368.545471 205.211700,363.259583 
	C204.997620,362.003571 205.147644,360.976929 204.964966,360.013397 
	C204.279114,356.395905 203.181885,352.529541 209.261154,355.814728 
	C209.980209,356.203247 211.029816,355.979431 211.498062,355.210907 
	C212.252457,353.972748 211.403412,353.028076 210.613663,352.138916 
	C207.553268,348.693390 203.994949,345.579132 203.009109,340.373474 
z"/>
<path fill="#06080C" opacity="1.000000" stroke="none" 
	d="
M363.354187,370.953888 
	C365.443634,368.043579 367.887238,365.087158 370.665436,362.065369 
	C369.786224,365.965271 368.134460,369.572021 363.354187,370.953888 
z"/>
<path fill="#06080C" opacity="1.000000" stroke="none" 
	d="
M358.311707,373.944824 
	C358.109680,373.115967 358.397125,372.361450 359.688171,372.056061 
	C359.890045,372.885010 359.602051,373.639069 358.311707,373.944824 
z"/>
<path fill="#080B11" opacity="1.000000" stroke="none" 
	d="
M305.750214,161.280731 
	C309.433655,159.878036 307.380157,157.806900 306.994446,155.888626 
	C306.535980,153.608871 303.016357,152.054077 305.684326,149.062347 
	C310.288788,153.843521 314.749451,158.531601 318.442932,163.888351 
	C321.559326,168.408081 324.894073,172.748520 326.606689,178.093521 
	C328.300690,183.380524 331.396362,187.904129 334.736267,192.294754 
	C339.666473,198.776031 344.007050,205.624664 346.990967,213.629532 
	C344.060028,214.824478 344.798767,217.048233 345.506989,218.793793 
	C346.738739,221.829636 348.407166,224.685638 349.808899,227.656525 
	C350.341553,228.785461 351.501953,230.017471 350.388550,231.281967 
	C349.241547,232.584686 347.951538,231.216965 346.359741,231.048843 
	C340.712158,225.879974 336.590424,220.123306 335.062439,212.692551 
	C334.030853,207.675781 331.076141,203.806534 326.343079,201.044800 
	C322.857788,198.821793 321.477570,195.314667 319.738190,192.196823 
	C314.990051,183.685776 311.115692,174.710251 306.255737,166.247299 
	C305.431091,164.811279 304.669037,163.298218 305.750214,161.280731 
z"/>
<path fill="#02060C" opacity="1.000000" stroke="none" 
	d="
M338.115936,176.555450 
	C338.286041,174.892059 337.197479,172.869141 339.372070,172.637787 
	C340.618866,172.505157 340.959656,174.094299 341.009918,175.251465 
	C341.069763,176.628937 342.805023,178.367966 341.217346,179.246002 
	C339.621246,180.128693 338.844238,178.216782 338.115936,176.555450 
z"/>
<path fill="#0E1015" opacity="1.000000" stroke="none" 
	d="
M324.749725,202.735214 
	C332.364319,216.931259 338.328796,231.580154 346.478699,245.107727 
	C349.864136,250.727051 351.859589,256.910645 353.983185,263.032288 
	C359.048340,277.633636 365.226471,291.989960 368.252930,307.111298 
	C371.208862,321.880127 371.050110,337.173859 361.732269,350.163116 
	C353.333405,361.871338 341.334564,369.973785 327.606049,373.263519 
	C310.610382,377.336121 293.035675,376.775330 275.859100,372.678589 
	C271.693756,371.685150 267.775208,369.656677 263.371582,368.052673 
	C259.448334,368.668457 256.535645,366.624054 253.790085,365.165161 
	C245.471344,360.744690 239.248032,353.938232 234.214951,346.039856 
	C233.502945,344.922516 233.059280,343.651978 233.740906,341.946838 
	C238.108643,339.772552 240.311050,343.120941 243.342804,345.288208 
	C249.929947,354.644348 259.498474,359.076538 269.241180,362.958282 
	C280.472687,367.433197 292.479950,369.528809 304.395386,369.919495 
	C325.699615,370.618073 345.117859,365.578186 358.215057,346.605103 
	C360.912598,342.697327 362.897308,338.573303 363.487976,333.817383 
	C365.021912,321.466248 364.364288,309.539917 360.465820,297.404053 
	C353.126404,274.556488 341.874176,253.642303 330.852509,232.557129 
	C330.312347,231.523849 329.743744,230.490494 329.023621,229.579407 
	C321.187592,219.666168 313.598358,209.582642 307.089111,198.298492 
	C306.666321,197.851059 306.511780,197.661285 306.170868,197.160553 
	C305.451752,195.310165 304.845825,193.813156 303.347900,192.432541 
	C300.548676,187.607162 297.002899,183.668121 294.647278,178.570099 
	C293.302094,173.461777 289.218079,169.994171 288.498108,164.611832 
	C287.932465,160.577576 284.650482,157.731262 285.482941,153.368744 
	C288.254395,151.432877 289.311401,153.616608 290.313416,155.180786 
	C293.220947,159.719513 296.978882,163.427094 301.023743,166.910538 
	C303.694305,169.210464 306.069733,171.942505 307.432953,175.105286 
	C310.349640,181.872162 315.101196,187.536438 318.275085,194.108902 
	C319.827301,197.323257 322.732086,199.459152 324.749725,202.735214 
z"/>
<path fill="#050917" opacity="1.000000" stroke="none" 
	d="
M325.030640,202.706573 
	C322.195374,202.699280 320.534302,200.528214 319.271301,198.578674 
	C315.328857,192.493317 311.525726,186.281525 308.202789,179.843048 
	C305.749817,175.090057 303.154602,170.622345 298.901825,167.280899 
	C293.909668,163.358521 290.581085,157.995544 286.339325,153.065491 
	C283.817017,151.982483 283.188324,149.780746 282.263031,147.878983 
	C277.007019,137.075790 271.287354,126.493294 263.964447,116.984573 
	C257.247681,108.262947 251.255310,98.654846 240.608368,93.738869 
	C237.910553,92.493217 235.798203,90.195541 233.470535,88.310089 
	C230.064529,85.551178 226.368332,83.393417 221.540924,82.767807 
	C212.821457,76.516655 203.169250,74.490448 193.113602,73.739723 
	C190.826035,73.568939 188.394379,73.882980 186.488403,71.470078 
	C186.187622,67.469040 189.144592,66.712013 191.565109,66.071815 
	C199.508087,63.970993 207.724442,63.911457 215.696838,65.201126 
	C225.078201,66.718735 233.955414,70.109062 241.698196,76.707520 
	C247.267563,79.950035 251.854431,83.595520 255.237946,88.753693 
	C267.396240,107.289085 280.721436,124.990273 294.176666,142.589645 
	C297.542328,146.991928 299.163422,152.332626 302.352173,156.813919 
	C303.310455,158.160645 303.938263,159.735153 305.699493,160.837219 
	C305.881439,162.580170 306.690948,163.783401 307.408569,165.129700 
	C313.636993,176.814941 319.754486,188.559296 325.951965,200.641815 
	C325.686401,201.469833 325.373810,201.942093 325.030640,202.706573 
z"/>
<path fill="#080B11" opacity="1.000000" stroke="none" 
	d="
M234.119644,341.641174 
	C239.268539,352.345032 246.626694,360.534058 257.602325,365.058075 
	C259.272430,365.746490 260.795319,366.791992 262.693176,367.836792 
	C262.654785,370.961243 263.945190,372.562408 266.914734,373.013641 
	C269.016266,373.333038 271.095123,373.888336 271.945648,376.643005 
	C262.180328,374.072235 251.851303,372.552216 242.850113,367.329773 
	C237.442230,364.192169 233.420105,358.949921 227.364273,356.675812 
	C226.124939,356.210419 224.930435,355.625671 223.357330,355.049194 
	C222.832565,355.001953 222.665756,355.001465 222.248688,355.000183 
	C221.148193,354.136627 220.285477,353.286407 219.213211,352.217468 
	C215.303329,349.102295 213.103683,345.273071 212.009033,340.378052 
	C209.440750,336.829407 207.443100,333.794098 212.512054,330.919037 
	C214.298660,329.905701 213.369141,327.150696 215.238129,325.556244 
	C217.685730,324.601685 219.593506,325.384033 221.033524,326.753296 
	C225.783234,331.269623 230.353760,335.971222 234.119644,341.641174 
z"/>
<path fill="#000218" opacity="1.000000" stroke="none" 
	d="
M241.948181,76.654663 
	C236.033676,75.377121 231.365707,71.013458 225.262207,69.470993 
	C218.368347,67.728783 211.885345,65.665024 204.372589,66.636009 
	C199.092224,67.318466 193.576782,66.226746 188.581299,69.034912 
	C188.040421,69.338959 187.629013,69.873322 187.078568,70.646591 
	C185.706406,72.594154 183.847900,72.756790 182.041260,72.721535 
	C170.947769,72.505043 160.342194,74.268867 150.651352,80.059448 
	C149.377426,80.820656 147.906067,81.191254 145.982452,81.139740 
	C142.469269,78.305458 139.739624,79.554367 136.766815,81.602959 
	C127.720261,87.837013 122.351593,97.146370 116.177132,105.782700 
	C104.498322,122.118111 96.616859,140.516464 87.457794,158.243332 
	C79.825623,173.014954 72.286736,187.831528 64.816605,202.683701 
	C54.651073,222.894928 45.001255,243.319595 38.081913,264.944794 
	C35.188896,273.986450 29.804405,282.003998 26.414215,290.845581 
	C21.804043,302.868866 18.062105,315.230072 20.895435,328.282043 
	C23.590597,340.697571 28.542751,351.162079 42.094002,356.119904 
	C57.241421,361.661682 72.391289,362.961578 88.174957,361.024902 
	C95.964432,360.069092 103.550529,358.721222 111.048424,356.235626 
	C122.438339,352.459808 131.545105,345.445190 140.400024,337.253784 
	C140.925934,336.616028 141.237213,336.267273 141.811295,335.700623 
	C142.670456,334.852417 143.433105,334.348938 143.672211,333.056366 
	C146.297745,326.677765 152.305847,324.061157 156.811600,320.090820 
	C160.965820,316.430237 165.946503,313.527466 170.730133,310.542328 
	C171.858459,309.838196 172.996201,309.110809 174.718262,309.766693 
	C174.939667,311.235413 174.481339,312.573547 173.427368,312.927979 
	C166.760971,315.169769 165.392288,321.646088 162.208450,326.659546 
	C157.943176,333.375946 152.951263,339.447479 146.543091,344.230469 
	C144.794312,345.535706 143.815186,347.040588 144.002838,349.617493 
	C134.110931,356.112213 124.556877,363.048004 112.908333,365.450806 
	C101.577194,367.788116 90.323662,370.295288 78.522720,370.195526 
	C64.985947,370.081055 51.715851,368.741852 39.227371,363.755768 
	C25.657957,358.338043 17.341507,348.075653 13.759483,333.528931 
	C9.336220,315.565979 13.539488,299.098053 20.065952,282.597168 
	C23.657610,273.516388 27.171238,264.416809 30.935684,255.396561 
	C46.755398,217.489883 63.051888,179.782928 82.851959,143.775269 
	C91.635544,127.801788 99.724091,111.283203 110.219147,96.404709 
	C115.993767,88.218201 122.405342,79.693649 131.766983,74.705605 
	C134.650131,73.169411 136.655487,70.733971 139.152817,68.823372 
	C146.918732,62.881985 156.250946,60.932693 165.609833,58.010872 
	C168.073441,59.682339 170.411087,59.129585 172.630051,58.591534 
	C180.965607,56.570366 189.150345,56.585007 197.621155,58.481369 
	C202.854477,59.652954 208.423065,59.596298 213.696198,61.024700 
	C223.512390,63.683758 232.475525,68.097282 240.514771,74.335968 
	C241.121902,74.807121 241.443863,75.645775 241.948181,76.654663 
z"/>
<path fill="#000121" opacity="1.000000" stroke="none" 
	d="
M143.202560,335.802002 
	C142.871002,336.302429 142.676376,336.555023 142.207840,336.878601 
	C132.937836,340.061707 125.814613,346.556488 117.575813,350.892975 
	C105.826172,357.077332 92.660622,358.863281 79.286469,357.838409 
	C75.959038,357.583466 72.615646,357.530518 69.299034,357.721832 
	C62.027527,358.141357 55.190605,356.431976 48.201874,354.619720 
	C27.558989,349.266846 20.755972,325.974335 24.247227,309.980438 
	C27.449955,295.308350 34.529884,282.251465 39.570530,268.363068 
	C54.271435,227.858032 75.075409,190.180237 94.488625,151.900986 
	C102.512314,136.079742 110.060181,119.853775 120.527596,105.321602 
	C125.399239,98.558182 130.283463,91.828819 136.411423,86.131645 
	C138.334976,84.343330 140.245346,82.346031 143.590088,82.504425 
	C146.133881,85.193726 144.559738,87.640846 143.669159,90.049461 
	C142.568268,93.026917 140.513184,95.459167 138.644287,98.432892 
	C132.631577,108.839966 127.360001,119.235870 120.530167,128.726868 
	C113.792755,138.089447 108.962219,148.518188 104.325829,159.033691 
	C100.023972,168.790405 94.501900,177.913300 89.512093,187.313034 
	C81.551155,202.309738 74.224915,217.612869 67.839211,233.347763 
	C65.890045,238.150696 63.082600,242.496414 61.023651,247.232956 
	C52.874180,265.980621 45.176971,284.912720 38.349163,304.178528 
	C36.068306,310.614349 34.754147,317.354034 37.037819,324.579285 
	C37.155453,327.210693 35.963531,329.083710 35.180267,331.083313 
	C32.732323,337.332764 33.963032,339.387238 40.802090,340.429535 
	C41.790482,340.580170 42.776581,340.718658 44.042973,341.272186 
	C46.574615,344.083069 49.743679,344.587372 52.824856,345.248230 
	C66.123840,348.100647 79.436638,347.761749 93.013916,347.123474 
	C113.516006,346.159607 126.745735,334.119904 139.432770,320.526428 
	C143.626465,316.033081 147.403610,311.137024 151.950882,306.425354 
	C154.544464,305.231537 155.853882,303.169342 156.993668,301.253052 
	C161.005508,294.507965 168.276535,293.013977 174.561081,289.936432 
	C175.739746,289.359192 177.156586,289.486877 178.875183,289.782715 
	C182.472702,291.201660 184.663452,293.411133 185.327026,297.331787 
	C185.121185,303.503632 179.555084,304.973969 176.306961,308.779999 
	C175.696854,309.129669 175.443787,309.324097 175.119781,309.793121 
	C167.881531,314.080688 160.599976,318.100830 154.854706,323.940887 
	C151.683792,327.164154 146.258728,328.062256 145.045441,333.645355 
	C144.457138,334.524567 143.934784,335.068329 143.202560,335.802002 
z"/>
<path fill="#050917" opacity="1.000000" stroke="none" 
	d="
M176.315796,309.171997 
	C175.783249,306.270569 177.333572,304.694336 179.612564,303.724640 
	C181.909744,302.747253 183.346619,301.127441 183.951965,298.353760 
	C187.400360,295.279388 190.877640,296.220917 194.056580,298.191467 
	C197.413025,300.272064 200.899200,302.063599 204.744293,304.051880 
	C208.330231,309.416687 212.919922,313.647614 215.424927,319.305420 
	C216.279968,321.236633 217.563889,323.117859 216.237854,325.697510 
	C214.795029,327.044739 214.924240,328.337891 215.364151,329.652313 
	C215.704529,330.669281 215.806641,332.193604 214.836151,332.242828 
	C208.631607,332.557465 212.029556,336.555634 211.998657,339.616882 
	C211.250000,340.002838 210.500000,340.002014 209.375000,340.001221 
	C200.321732,332.526825 195.510956,321.844299 187.367401,313.903778 
	C185.742050,312.318970 183.936005,312.202179 182.010376,311.773590 
	C180.090027,311.346130 178.139755,310.777100 176.315796,309.171997 
z"/>
<path fill="#090B0E" opacity="1.000000" stroke="none" 
	d="
M219.045532,352.337555 
	C220.500992,352.113312 221.565796,352.769501 221.953323,354.664062 
	C220.498749,354.886780 219.434021,354.230682 219.045532,352.337555 
z"/>
<path fill="#131519" opacity="1.000000" stroke="none" 
	d="
M306.764038,197.293472 
	C310.681244,198.471466 311.322815,202.219849 313.069427,205.125153 
	C315.982391,209.970535 318.931793,214.784882 322.920746,218.851257 
	C332.827850,228.950699 337.098846,242.423904 344.032837,254.294785 
	C353.991943,271.344543 361.122162,289.836609 365.067932,308.981232 
	C368.541565,325.835052 367.071381,342.726166 352.768890,355.909119 
	C342.586426,365.294556 330.600494,369.315125 317.296570,371.061066 
	C299.670868,373.374176 282.950562,369.256195 266.578491,363.810303 
	C258.774445,361.214417 251.676056,356.524811 245.430237,350.906372 
	C244.193726,349.794098 242.944214,348.630371 243.010162,346.368042 
	C242.632111,345.615845 242.463196,345.155609 242.634735,344.268188 
	C245.792084,342.328979 247.279800,344.897339 249.133545,346.323639 
	C258.951111,353.877289 270.628632,356.911316 282.279205,360.002930 
	C282.659424,360.103882 283.165436,359.616943 283.949768,359.221069 
	C291.003448,358.736420 297.502838,360.521332 304.127563,360.919800 
	C319.544037,361.847046 334.034821,359.686798 345.755798,348.321411 
	C351.269043,342.975464 353.738800,336.218811 355.168762,328.898224 
	C357.636871,316.263123 354.780334,304.203827 349.831268,292.909210 
	C342.698608,276.631226 334.974304,260.591461 327.136932,244.623611 
	C326.474335,243.273605 325.816803,241.935272 325.521667,240.056671 
	C322.162109,228.661438 316.269806,218.884293 310.689331,208.959244 
	C308.681427,205.388199 306.068329,202.052536 306.764038,197.293472 
z"/>
<path fill="#07101E" opacity="1.000000" stroke="none" 
	d="
M221.851624,82.325226 
	C227.332428,81.432320 231.195877,84.479652 234.923172,87.516876 
	C238.412231,90.359970 241.853622,93.210938 246.024750,94.994499 
	C248.382202,96.002533 250.285187,97.574051 251.950760,99.460220 
	C265.966644,115.332344 277.503296,132.800552 285.955231,152.639832 
	C286.560638,156.707230 288.668579,159.827896 289.953308,163.639572 
	C287.511780,165.440643 286.234283,163.533524 285.233215,161.956390 
	C277.494659,149.764999 267.152863,139.543777 259.244507,127.497025 
	C256.748322,123.694588 253.762894,120.469597 249.743576,117.690613 
	C247.929138,115.056480 246.810074,112.429832 245.684708,109.860031 
	C240.755020,98.602997 232.489960,90.437935 222.106232,83.652451 
	C221.823196,83.127174 221.760971,82.891930 221.851624,82.325226 
z"/>
<path fill="#10161F" opacity="1.000000" stroke="none" 
	d="
M307.003174,196.750153 
	C309.044891,205.343491 314.806000,211.808014 318.358795,219.403793 
	C321.284607,225.659103 324.601227,231.727798 326.948761,238.634186 
	C323.991608,240.635590 322.834747,238.080383 321.499054,236.392990 
	C319.464691,233.822983 318.067596,230.716324 314.731323,228.818298 
	C304.844238,215.864365 296.514465,202.301773 288.222168,188.715775 
	C286.326263,185.609528 284.627991,182.371033 281.627930,179.612518 
	C280.247253,177.426666 279.146851,175.494614 278.044128,173.131042 
	C277.825684,171.952377 277.931458,171.175537 278.448761,170.080124 
	C283.495117,167.832458 287.735931,168.840652 291.633331,172.822998 
	C293.029144,174.249252 293.973846,176.047806 295.713470,177.714523 
	C297.831116,182.912766 302.328888,186.236649 303.958282,191.648651 
	C305.107086,193.004593 305.597595,194.446228 306.776184,195.774353 
	C306.999481,196.162903 307.000458,196.330688 307.003174,196.750153 
z"/>
<path fill="#0B1422" opacity="1.000000" stroke="none" 
	d="
M295.953674,177.645233 
	C293.736511,177.889252 292.503632,176.161926 291.262421,174.694809 
	C288.229218,171.109650 284.423798,169.677948 279.420746,169.999207 
	C276.408173,170.707382 275.314209,168.751709 274.459045,167.069107 
	C269.039490,156.405640 261.299072,147.130539 256.115479,136.343903 
	C253.319305,130.525284 250.325912,124.805618 247.586884,118.588013 
	C247.900009,117.433830 248.482300,116.992401 249.634644,116.892601 
	C256.869812,118.802673 259.408936,125.062721 262.912262,130.068115 
	C270.779144,141.308060 280.705811,150.981857 287.662811,162.896194 
	C287.948486,163.385422 288.750305,163.573273 289.656433,163.950760 
	C290.095123,169.262817 294.730408,172.507217 295.953674,177.645233 
z"/>
<path fill="#07101E" opacity="1.000000" stroke="none" 
	d="
M243.228653,343.702667 
	C243.003845,344.443604 243.002792,344.889038 243.001801,345.668671 
	C239.825180,345.549561 238.237061,341.802673 234.367935,342.009277 
	C229.406601,338.203430 225.452103,333.797333 221.680176,329.207367 
	C220.389297,327.636505 218.694748,326.594910 216.348801,326.045227 
	C215.207581,321.017639 212.834732,316.813385 209.561066,313.077759 
	C207.630936,310.875275 205.502441,308.818115 205.008545,305.365173 
	C202.997574,302.573212 204.012024,300.437897 205.729767,298.468689 
	C206.907257,297.118835 208.425156,296.124969 210.170883,294.825867 
	C212.823502,293.722900 214.471970,294.938751 215.506821,296.687988 
	C219.382645,303.239685 224.984711,308.514435 229.039032,315.375427 
	C231.409134,324.334045 234.783325,332.323181 241.330124,338.663544 
	C242.615479,339.908356 243.941422,341.294250 243.228653,343.702667 
z"/>
<path fill="#131519" opacity="1.000000" stroke="none" 
	d="
M306.955750,195.653229 
	C305.024292,195.775360 304.559052,194.228561 304.046753,192.344131 
	C305.975433,192.225311 306.441498,193.770737 306.955750,195.653229 
z"/>
<path fill="#010823" opacity="1.000000" stroke="none" 
	d="
M221.836395,81.697861 
	C222.003311,82.161537 222.002121,82.329308 221.999847,82.748734 
	C219.937057,84.638252 217.883667,83.394501 215.815186,83.002823 
	C201.012680,80.199966 186.677261,81.677597 172.842926,87.721466 
	C171.296631,88.397003 169.938492,89.341850 168.330627,90.684715 
	C164.435654,92.315987 160.738968,91.750946 156.696518,91.758896 
	C152.718597,91.029152 151.113358,94.196747 148.299194,95.848328 
	C144.547333,97.026375 141.587662,99.943985 137.296936,98.259285 
	C139.978149,93.576149 143.213104,89.278191 143.988190,83.385124 
	C143.379639,82.014503 143.800934,81.212852 144.724731,80.225266 
	C147.844193,80.148590 150.133911,78.600784 152.359924,77.254906 
	C162.835892,70.920944 174.418610,70.851227 186.532288,70.994354 
	C192.591507,73.098000 198.615509,72.467850 204.408218,73.515648 
	C211.125366,74.730667 216.322540,77.904160 221.836395,81.697861 
z"/>
<path fill="#00011D" opacity="1.000000" stroke="none" 
	d="
M144.779449,79.787888 
	C144.751740,80.804756 144.505722,81.611000 144.129089,82.709167 
	C138.619949,84.633484 135.140488,89.021233 131.974777,92.939308 
	C122.287773,104.928589 113.752815,117.753647 107.033249,131.741684 
	C103.379456,139.347733 98.824432,146.515976 95.018562,154.054688 
	C82.373100,179.102921 69.878517,204.227341 57.336170,229.327576 
	C54.060162,235.883682 52.059170,242.983490 49.046795,249.614456 
	C42.532932,263.953033 37.205544,278.770996 31.172955,293.294861 
	C26.330099,304.954376 22.454470,317.300537 26.592476,330.521362 
	C30.136005,341.842834 36.927849,349.367004 48.371796,352.986969 
	C55.941494,355.381439 63.541878,355.961853 71.409370,356.152710 
	C81.010201,356.385590 90.600616,356.723907 100.021637,354.892090 
	C108.784996,353.188202 117.591469,351.195740 124.221138,344.317352 
	C128.824524,339.541260 134.857925,337.902039 141.602600,337.059601 
	C140.094833,340.613495 136.842514,343.127502 133.809830,345.473633 
	C121.677780,354.859161 108.074478,360.894043 92.536301,362.036377 
	C86.101761,362.509460 79.698914,363.808655 73.271133,363.888885 
	C62.912556,364.018158 53.024879,361.372528 43.140976,358.212463 
	C25.840408,352.681213 20.533304,339.578064 18.920271,323.302429 
	C17.304766,307.001831 23.354790,292.939362 30.304634,278.877380 
	C33.141075,273.138275 36.059055,267.330200 37.559776,260.961121 
	C40.479996,248.567673 46.795288,237.461823 51.820858,225.936874 
	C60.163445,206.805130 69.274406,187.921005 79.417679,169.686859 
	C89.260818,151.992264 96.498062,132.957718 107.573395,115.957520 
	C113.731529,106.505020 119.831749,96.951431 126.829033,88.134628 
	C130.546143,83.450958 135.702423,79.710999 141.246399,76.871132 
	C144.662827,75.121094 144.700378,77.156242 144.779449,79.787888 
z"/>
<path fill="#00011D" opacity="1.000000" stroke="none" 
	d="
M143.311951,335.944458 
	C143.109436,335.115509 143.397034,334.361420 144.687119,334.055145 
	C144.890274,334.884430 144.602798,335.638611 143.311951,335.944458 
z"/>
<path fill="#01032B" opacity="1.000000" stroke="none" 
	d="
M136.855408,98.315094 
	C140.726471,98.092529 143.674927,95.514763 147.612137,95.011993 
	C149.559937,97.009918 148.301163,98.827141 147.461472,100.538338 
	C142.719650,110.201553 138.552734,120.141510 133.313416,129.976379 
	C128.075256,139.558258 124.106430,149.342636 119.247047,159.106003 
	C107.028862,183.788071 94.904732,208.105179 83.288963,233.084686 
	C68.881477,261.740967 55.084446,290.279999 41.330296,318.840454 
	C40.203712,321.179779 39.458885,323.887299 36.440784,325.168701 
	C32.008415,319.318939 34.194824,312.900452 35.683632,307.318817 
	C38.536346,296.623779 42.316326,286.115326 47.721840,276.292480 
	C49.382393,273.274963 50.417038,269.830658 51.261860,266.462280 
	C53.637676,256.989685 58.856426,248.818024 62.894882,240.103073 
	C67.506218,230.151840 72.020409,220.152786 76.397301,210.096390 
	C83.098083,194.700623 91.579285,180.225891 99.465988,165.452332 
	C102.987335,158.856064 105.515778,151.843826 109.054901,145.236160 
	C112.591919,138.632401 116.154434,132.097458 120.443138,125.987236 
	C126.561363,117.270447 131.373093,107.798668 136.855408,98.315094 
z"/>
<path fill="#1275FC" opacity="1.000000" stroke="none" 
	d="
M36.025333,325.502777 
	C43.758877,311.228424 50.148941,296.664642 57.196594,282.426300 
	C65.281769,266.091888 73.292000,249.720398 81.590141,233.134491 
	C85.390472,233.058090 84.864769,236.218628 85.904953,238.682419 
	C86.181328,241.350769 85.204544,243.297394 84.247963,245.239258 
	C70.500153,273.147522 57.088722,301.219910 43.319988,329.117950 
	C43.025410,329.714783 42.749332,330.321838 42.432186,330.906250 
	C41.288696,333.013519 41.375942,334.377563 44.295536,334.291107 
	C54.431496,333.990936 64.575661,334.765564 74.716766,333.733856 
	C79.925598,333.203918 85.302750,332.112885 90.613785,335.123535 
	C91.701508,337.292511 91.620300,339.076630 90.355347,341.194885 
	C88.938217,342.385834 87.657059,342.799347 86.324539,342.836853 
	C74.071777,343.181885 61.850689,344.602234 49.568981,343.943207 
	C47.903801,343.853851 46.273926,343.566254 44.395691,342.441650 
	C42.190468,342.094391 40.376446,342.112457 38.580906,341.939117 
	C33.365364,341.435486 30.955694,337.422638 32.943584,332.508362 
	C33.856728,330.250977 34.965332,328.072632 36.025333,325.502777 
z"/>
<path fill="#010226" opacity="1.000000" stroke="none" 
	d="
M44.060509,342.508606 
	C59.024899,341.772217 74.053749,341.380646 89.546082,340.916870 
	C95.208168,337.555542 100.980118,339.651215 106.872696,339.109039 
	C110.691689,339.843994 111.761497,337.127197 113.159210,335.013885 
	C115.310616,331.761017 116.199402,327.789124 119.208282,324.657806 
	C124.568451,323.707764 128.533752,320.907501 131.321228,316.946014 
	C135.648010,310.796844 141.242126,305.869568 146.234360,300.371002 
	C148.364838,298.024475 150.214111,295.522583 152.044922,292.961151 
	C153.882751,290.389832 155.885620,287.846313 159.970123,288.684509 
	C161.143723,290.446136 160.530914,291.864655 159.510406,292.922882 
	C155.846024,296.722656 154.090179,301.317017 153.236176,306.724182 
	C144.859283,317.263153 136.780472,327.763000 126.395988,335.730621 
	C119.268188,341.199554 111.152191,345.698273 102.446892,348.667358 
	C99.053970,349.824585 95.810226,347.864960 92.161285,348.550873 
	C77.780724,351.253967 63.468918,349.490723 49.330788,346.210815 
	C47.270603,345.732910 45.026905,345.257507 44.060509,342.508606 
z"/>
<path fill="#010823" opacity="1.000000" stroke="none" 
	d="
M153.344055,306.953705 
	C151.126801,301.377197 153.837540,297.176331 157.292953,293.214630 
	C158.258835,292.107208 159.572540,291.263336 159.953278,289.345398 
	C157.898972,286.702637 158.890762,284.439545 160.043655,282.148773 
	C162.806381,276.659454 165.984100,271.480347 170.715454,267.414703 
	C171.588745,266.664307 172.440140,265.870697 173.325760,264.587891 
	C176.476746,262.317352 179.754120,261.402893 183.529205,260.748840 
	C189.850525,262.241302 191.360275,267.526581 193.632416,272.503174 
	C193.338516,273.685333 192.634567,274.338440 192.495071,275.099854 
	C191.101395,282.707275 185.764282,286.982605 179.296631,290.792725 
	C170.115128,292.445435 162.310928,295.762695 157.200424,303.673035 
	C156.293976,305.076050 155.447769,306.465912 153.344055,306.953705 
z"/>
<path fill="#060C20" opacity="1.000000" stroke="none" 
	d="
M179.295746,291.159546 
	C178.784500,289.030518 179.904251,288.020447 181.525940,287.204285 
	C186.339325,284.781830 190.056412,281.525146 190.120850,275.546722 
	C190.134705,274.262024 191.012482,273.461334 192.626877,273.060059 
	C195.210953,271.563019 196.247803,273.507385 197.412216,274.668884 
	C199.937256,277.187622 202.379776,279.787079 205.421661,282.301300 
	C208.064621,286.287445 211.254288,289.619873 211.228058,294.703735 
	C210.926682,296.705139 209.871033,297.642029 208.433777,298.273895 
	C205.833206,299.417084 204.904282,301.521149 205.001404,304.609314 
	C201.743561,304.814697 198.716965,303.583740 196.323059,301.633698 
	C192.874619,298.824646 189.252930,297.440094 184.434662,297.999207 
	C184.246780,294.640228 181.592911,293.194916 179.295746,291.159546 
z"/>
<path fill="#16191D" opacity="1.000000" stroke="none" 
	d="
M314.770813,228.301636 
	C318.063110,228.561340 319.445068,231.057404 321.160645,233.232712 
	C322.740204,235.235565 323.424591,238.081741 326.653687,238.953278 
	C326.933350,243.506836 330.331116,246.520996 332.075378,250.203384 
	C336.477905,259.497803 339.753693,269.300354 345.031891,278.206421 
	C351.895233,289.787292 355.764252,302.543549 357.823181,315.716949 
	C361.298157,337.950195 344.398499,358.959595 321.832520,362.081696 
	C309.248535,363.822723 297.089905,361.969696 284.414917,360.014679 
	C276.590393,360.244598 270.666962,357.083679 265.644806,351.922455 
	C264.698212,350.949615 264.118744,349.759308 264.790985,347.991821 
	C267.629089,346.437073 269.861511,348.034729 272.188965,348.664368 
	C276.515778,349.834991 281.006683,350.176453 285.699310,351.504639 
	C299.169098,355.379944 312.431519,355.368774 325.623322,352.675018 
	C335.937744,350.568848 342.919556,344.145355 347.243011,334.437439 
	C350.726715,326.615143 351.357544,318.871948 349.322296,310.612518 
	C347.040863,301.354218 344.542328,292.323547 339.028442,284.268799 
	C334.889648,278.222809 332.911011,270.992004 329.548096,264.081360 
	C325.560181,253.643494 321.364258,243.705460 316.261963,234.169708 
	C315.339813,232.446304 314.006775,230.798706 314.770813,228.301636 
z"/>
<path fill="#10161F" opacity="1.000000" stroke="none" 
	d="
M264.888306,347.662659 
	C267.793945,353.194672 272.390594,356.099335 277.768646,357.948761 
	C279.626953,358.587769 281.569458,358.982025 283.737366,359.744019 
	C283.708374,361.780121 282.688446,361.991577 281.100525,361.554321 
	C271.798523,358.992828 262.734131,355.767914 253.893753,351.915222 
	C249.857422,350.156097 247.537827,346.119019 243.347198,344.045044 
	C242.138092,339.935669 238.235153,338.269775 236.028076,335.234467 
	C231.955612,329.633728 229.591751,323.407379 228.011856,316.390717 
	C231.588058,314.298889 232.950165,317.537109 234.780746,319.276642 
	C237.721451,322.071106 239.634567,325.953735 244.027786,327.672882 
	C251.734497,333.705658 258.079407,340.697510 264.888306,347.662659 
z"/>
<path fill="#030E28" opacity="1.000000" stroke="none" 
	d="
M168.291260,90.219925 
	C171.640259,84.188988 177.915619,83.812569 183.521255,82.098785 
	C192.263885,79.425934 201.264664,80.037560 210.217285,79.990623 
	C214.169708,79.969910 217.562088,81.959892 221.622498,82.947189 
	C228.452881,85.455978 233.787872,89.722031 238.090378,94.825302 
	C243.380188,101.099617 247.201309,108.447441 249.992874,116.623055 
	C249.506256,117.256973 249.008835,117.514877 248.255615,117.887421 
	C244.926880,119.768700 243.014954,117.485855 241.167160,115.797699 
	C238.194672,113.082016 235.040085,110.824852 230.725739,109.696098 
	C227.390854,106.925774 226.211029,103.217285 224.573273,99.846283 
	C222.162842,94.884926 218.729965,92.153091 212.927185,92.661613 
	C209.666458,92.947365 206.345291,92.883026 202.640030,92.585693 
	C195.954391,93.185616 189.714020,93.202202 183.086060,91.709511 
	C177.903320,91.875717 173.114441,92.894707 168.291260,90.219925 
z"/>
<path fill="#141D2B" opacity="1.000000" stroke="none" 
	d="
M278.721893,172.738403 
	C280.490967,174.480133 282.033051,175.932053 281.993774,178.642456 
	C287.104706,184.462570 289.489441,191.520859 292.853455,197.959442 
	C297.154816,206.191986 300.107605,215.080444 304.247375,223.418976 
	C304.696106,224.322800 304.876923,225.313416 304.482361,226.675934 
	C301.382202,228.677979 300.094788,226.190842 298.689789,224.575043 
	C294.584412,219.853683 289.934875,216.098679 283.234619,214.814880 
	C281.155823,213.426697 280.666840,211.308121 279.179108,209.445984 
	C273.135010,197.429276 267.763245,185.500381 261.478760,174.022781 
	C259.509766,170.426666 257.136261,166.925461 257.542480,162.182007 
	C259.440033,160.459503 261.219147,160.998901 262.858215,161.883270 
	C268.411377,164.879517 274.212708,167.530716 278.721893,172.738403 
z"/>
<path fill="#0B172A" opacity="1.000000" stroke="none" 
	d="
M278.999268,172.624878 
	C273.108032,171.235855 269.197296,166.099182 263.511169,163.923065 
	C261.854187,163.288940 260.447357,161.999100 258.128357,162.079575 
	C255.719055,162.030579 254.989609,160.414474 254.310257,158.981781 
	C251.429947,152.907501 247.714172,147.257111 245.024841,140.675507 
	C241.258072,132.957687 237.645096,125.577759 233.759354,118.330284 
	C232.303528,115.614944 230.549805,112.928276 230.925140,109.304688 
	C235.358536,108.414146 238.236816,110.822426 240.966919,113.485435 
	C242.841660,115.314102 244.579300,117.304634 247.649109,117.956421 
	C253.382385,124.500954 255.710876,132.660553 259.769043,139.892075 
	C263.430145,146.416092 267.655151,152.558105 271.726624,158.769836 
	C274.071442,162.347214 274.542572,167.076843 278.698486,169.837296 
	C278.999908,170.749146 278.999817,171.499451 278.999268,172.624878 
z"/>
<path fill="#161B23" opacity="1.000000" stroke="none" 
	d="
M303.772034,227.303253 
	C299.443817,216.850754 294.951233,206.671082 290.306549,196.561279 
	C287.698853,190.885239 284.839630,185.324753 282.048096,179.357162 
	C284.722992,179.087402 285.429443,181.511185 286.457062,183.223648 
	C295.461914,198.229401 305.215576,212.747284 314.952850,227.653915 
	C316.256866,230.509491 317.418396,233.072327 318.787750,235.518845 
	C323.589752,244.097977 326.697021,253.438126 330.952271,262.641052 
	C326.360626,264.862366 324.606415,261.273376 323.076141,258.326172 
	C319.898834,252.206985 315.813232,246.865784 310.593475,241.875153 
	C307.553497,237.201065 304.215118,233.044861 303.772034,227.303253 
z"/>
<path fill="#0B1422" opacity="1.000000" stroke="none" 
	d="
M244.247894,328.693604 
	C240.288162,328.430695 238.100952,325.843475 236.015213,323.059753 
	C233.971512,320.332123 231.877655,317.625488 228.342758,316.046936 
	C223.520554,309.684357 218.020493,304.121643 214.186142,297.328583 
	C213.600586,296.291168 212.958313,295.355103 211.345551,295.050293 
	C209.032684,291.234650 207.064774,287.468079 205.047516,283.351379 
	C205.369797,280.373016 207.413315,281.092682 208.802399,281.406281 
	C212.703110,282.287018 216.674881,281.987823 220.985352,282.538391 
	C224.494186,283.390778 225.955200,285.880188 226.955124,288.502472 
	C231.092697,299.353088 236.392761,309.585175 242.960678,319.613373 
	C243.736008,322.750458 245.320557,325.371338 244.247894,328.693604 
z"/>
<path fill="#4F9AFC" opacity="1.000000" stroke="none" 
	d="
M131.988678,130.325943 
	C137.283951,118.556587 142.687805,107.145966 148.042786,95.368805 
	C150.010208,93.225693 151.133453,90.314507 154.671844,90.089775 
	C156.368546,91.408768 156.598709,93.021240 156.448303,95.135628 
	C151.014999,108.780731 144.644592,121.557716 138.022446,134.214035 
	C137.558502,135.100723 136.842041,135.819443 135.508606,136.287781 
	C132.419571,135.365082 132.704056,132.785843 131.988678,130.325943 
z"/>
<path fill="#6DACFB" opacity="1.000000" stroke="none" 
	d="
M155.348145,96.396133 
	C155.012177,94.351234 155.010635,92.672493 155.016846,90.574875 
	C159.043152,90.097382 163.061722,90.038765 167.538696,89.910210 
	C172.707199,89.934807 177.417297,90.029350 182.586426,90.225723 
	C184.721039,92.024124 184.575912,93.904816 183.267365,96.239670 
	C180.415634,98.285904 177.540054,98.124649 174.772369,97.956787 
	C168.408813,97.570839 161.912445,99.218506 155.348145,96.396133 
z"/>
<path fill="#3086FC" opacity="1.000000" stroke="none" 
	d="
M85.357635,239.090561 
	C84.119316,237.117523 83.252197,235.237274 82.115280,233.130493 
	C87.533035,220.921967 93.170967,208.916092 98.921738,196.964523 
	C104.966293,184.402420 111.118874,171.892303 117.480064,159.133881 
	C122.116592,157.857239 120.990196,161.497086 121.819473,163.954681 
	C122.398697,166.823013 121.182114,168.857498 120.177605,170.949524 
	C112.339012,187.274551 104.680267,203.688156 96.344292,219.769165 
	C93.893028,224.497910 92.137375,229.538406 89.652115,234.242538 
	C88.659409,236.121536 87.980606,238.288254 85.357635,239.090561 
z"/>
<path fill="#418FFA" opacity="1.000000" stroke="none" 
	d="
M121.370819,165.085495 
	C118.944016,163.548401 121.243896,160.240952 118.106514,159.002167 
	C122.267807,149.398849 126.799736,139.889420 131.605865,130.173599 
	C135.186859,130.560913 133.319839,133.864426 134.907227,135.792358 
	C135.994293,137.160110 135.847153,138.365173 135.354385,139.418396 
	C131.621231,147.397369 128.354828,155.600937 123.967072,163.265564 
	C123.467590,164.138046 122.755173,164.851120 121.370819,165.085495 
z"/>
<path fill="#FEFFFF" opacity="1.000000" stroke="none" 
	d="
M120.953941,165.356567 
	C126.275253,155.921814 130.326141,146.235962 135.017593,136.493042 
	C141.606400,122.976601 148.145996,109.810730 154.849640,96.337418 
	C164.041077,96.073929 173.068451,96.117882 182.565857,96.128052 
	C184.764664,94.352524 186.884659,94.733070 189.015244,94.911179 
	C193.082642,95.251198 197.170990,94.952759 201.657883,95.284943 
	C205.731354,95.341179 209.391846,95.344467 213.050095,95.307724 
	C217.193497,95.266113 219.945801,97.087143 221.757904,100.771080 
	C228.739822,114.965027 236.063965,128.989380 243.023743,143.623383 
	C254.759155,166.915482 266.191589,189.929672 277.900208,213.216461 
	C282.477142,222.742401 287.173309,231.798416 291.906311,241.237854 
	C302.792542,263.425476 313.856934,285.122253 324.742310,306.908356 
	C325.862030,309.149353 326.676178,312.266174 330.812897,310.602905 
	C333.706085,310.823486 334.600464,312.865356 335.601685,314.734100 
	C337.850037,318.930786 339.745026,323.309113 342.313599,327.803589 
	C346.216736,336.870880 343.933319,341.523773 335.044739,342.499146 
	C331.953186,342.441925 329.252838,343.296051 326.279846,341.850800 
	C323.369934,337.222992 319.171967,336.210419 314.539032,335.958435 
	C308.585480,335.634613 302.617432,336.205383 296.242493,335.606842 
	C288.806976,336.522980 281.919250,334.406830 274.526489,334.708649 
	C270.099640,334.661499 267.870148,332.306030 266.156952,328.968384 
	C261.929749,320.733002 258.128998,312.280853 253.340546,303.911987 
	C241.301651,280.067200 229.450180,256.546570 217.132690,232.859344 
	C208.005585,213.671875 198.120132,195.286026 187.941605,175.680939 
	C183.646545,184.054321 179.981796,191.436966 176.248856,199.186493 
	C169.939865,213.424332 162.648697,226.782059 156.019058,240.464615 
	C154.073593,244.479706 151.909729,248.391083 150.141815,252.901581 
	C142.246429,268.893066 134.602417,284.594574 126.487579,300.480713 
	C121.982956,311.363983 116.082619,321.151031 111.419159,331.540222 
	C110.599220,333.366852 109.529366,335.031158 107.280739,336.178680 
	C101.478271,337.057892 96.068146,337.738647 90.337608,335.638306 
	C72.901314,335.408142 55.860855,335.408142 38.356598,335.408142 
	C53.902039,303.439392 69.396286,271.575928 84.938477,239.355133 
	C92.119019,224.570602 99.281685,210.158173 106.373871,195.711151 
	C111.270187,185.737167 116.069092,175.715332 120.953941,165.356567 
z"/>
<path fill="#3086FC" opacity="1.000000" stroke="none" 
	d="
M89.945312,335.795471 
	C95.644264,335.270172 101.346748,335.132172 107.515602,334.970306 
	C110.397652,336.084686 110.570671,337.924194 109.311470,340.457642 
	C102.994415,340.852814 96.965942,340.911621 90.473518,340.907532 
	C89.989326,339.290680 89.969086,337.736755 89.945312,335.795471 
z"/>
<path fill="#01032B" opacity="1.000000" stroke="none" 
	d="
M173.704834,264.663483 
	C173.285950,268.606598 169.862473,270.032074 167.885651,272.618469 
	C164.291138,277.321320 160.779495,282.069397 159.999847,288.599854 
	C157.543915,289.301270 155.319611,290.434845 154.172989,292.470154 
	C148.332489,302.837372 138.026154,309.377319 131.518951,319.261963 
	C129.353699,322.551056 125.512138,325.915009 120.183777,325.140381 
	C118.821060,322.449799 120.152817,320.413208 121.113586,318.390228 
	C123.218735,313.957642 125.515732,309.617188 127.749695,304.826599 
	C134.121460,292.554108 139.780731,280.345703 146.012680,268.424988 
	C147.158722,266.232758 147.979263,263.815399 150.449524,262.055176 
	C158.638962,260.031799 166.103394,261.462524 173.704834,264.663483 
z"/>
<path fill="#418FFA" opacity="1.000000" stroke="none" 
	d="
M129.264175,304.904663 
	C126.138191,311.602570 123.138191,317.900299 120.049858,324.539001 
	C118.163666,328.455139 116.367241,332.031006 114.567436,335.605164 
	C113.455002,337.814331 112.187904,339.881042 109.362656,340.800568 
	C108.959930,339.047211 109.232628,337.252716 108.135742,335.288635 
	C113.628227,323.515930 119.274490,312.085480 125.108093,300.347687 
	C129.433762,298.984436 128.897903,302.215942 129.264175,304.904663 
z"/>
<path fill="#030A31" opacity="1.000000" stroke="none" 
	d="
M174.367584,264.951477 
	C166.362137,264.910797 158.998840,261.709808 150.797180,263.012207 
	C148.699341,261.288361 150.268555,259.759216 150.810699,257.819397 
	C157.694397,244.221405 164.170914,230.839340 170.947311,217.607819 
	C172.063583,215.428177 172.834335,212.977341 175.483719,211.488251 
	C177.670959,211.284164 179.254272,212.173508 180.038925,213.558334 
	C184.627762,221.657028 191.339691,228.281342 195.744659,236.825378 
	C187.978836,240.534042 189.218872,246.817886 190.433411,253.475189 
	C189.801300,257.422760 187.431732,259.644958 184.279831,261.741882 
	C180.912796,262.967224 177.825211,263.933258 174.367584,264.951477 
z"/>
<path fill="#030E28" opacity="1.000000" stroke="none" 
	d="
M184.347076,262.049591 
	C184.248230,258.631012 188.151581,257.712830 188.954269,254.341766 
	C194.047409,251.910492 202.619049,254.658890 207.600540,259.975159 
	C209.508041,262.010803 210.986038,264.485291 213.919678,266.005127 
	C218.793839,269.928864 220.619919,275.338257 223.098541,280.771301 
	C223.182236,281.977844 222.987686,282.737274 222.277466,283.718750 
	C216.438873,284.138580 210.893982,284.144165 205.244858,282.771118 
	C199.897125,281.226410 197.676636,276.143188 193.325958,273.062683 
	C190.166748,269.411835 188.922501,264.618500 184.347076,262.049591 
z"/>
<path fill="#1B1D22" opacity="1.000000" stroke="none" 
	d="
M334.677917,341.405884 
	C342.952362,340.063568 344.611542,336.664551 340.911743,328.625610 
	C343.496033,311.483307 335.172211,297.704041 328.593903,283.447754 
	C328.385620,282.996368 328.028625,282.604706 327.871521,282.140259 
	C323.388885,268.887939 317.089813,256.456268 310.713776,244.057510 
	C310.329468,243.310135 310.299896,242.457123 310.771271,241.312897 
	C316.736816,244.804535 320.619904,250.164703 323.583496,256.231628 
	C325.072723,259.280304 326.631714,262.108734 330.645691,262.953918 
	C334.513062,270.810181 337.257629,278.989685 342.093201,286.164948 
	C349.410034,297.021973 351.847351,309.599548 352.623016,322.099945 
	C353.571411,337.384430 338.849670,352.967743 323.585083,354.977386 
	C311.157501,356.613495 298.780975,357.000916 286.277802,353.260834 
	C285.295227,350.367279 287.148254,349.026123 289.127808,347.393280 
	C294.640961,346.976166 299.648682,348.263519 304.796783,348.347229 
	C315.269592,348.517609 325.267914,347.285126 334.677917,341.405884 
z"/>
<path fill="#161B23" opacity="1.000000" stroke="none" 
	d="
M288.951294,347.634918 
	C289.003662,350.022675 287.250519,350.973236 286.153992,352.709656 
	C279.151367,351.763855 272.121216,351.277191 265.371674,348.052063 
	C259.389771,345.387909 255.891617,340.245575 251.393906,336.323700 
	C249.002625,334.238525 247.022278,331.504425 244.295410,329.156464 
	C243.610184,326.198669 241.855011,323.728210 242.004684,320.398254 
	C244.608978,317.592651 247.176529,318.913269 249.580917,320.260712 
	C252.011215,321.622711 254.367065,323.015930 257.643555,322.988434 
	C261.599670,324.687286 262.350067,328.379395 263.889709,331.408905 
	C265.779846,335.128082 268.227905,337.671173 273.071014,337.474243 
	C275.259918,337.188568 277.049896,337.279480 279.171112,337.926086 
	C282.113007,341.683105 286.310822,343.656921 288.951294,347.634918 
z"/>
<path fill="#B1D3FC" opacity="1.000000" stroke="none" 
	d="
M242.402985,145.182022 
	C234.976547,130.840897 227.729996,116.804810 220.881638,102.577057 
	C218.886444,98.431953 216.556839,96.314789 211.815079,96.964165 
	C209.209061,97.321045 206.505249,96.963745 203.379272,96.853821 
	C201.444199,95.254333 201.419937,93.596657 202.767395,91.512794 
	C207.190247,91.129753 211.337448,91.379173 215.410736,90.941177 
	C220.172302,90.429146 222.661331,93.213638 224.662506,96.629166 
	C226.892426,100.435059 228.711029,104.481934 230.920837,108.709801 
	C236.081528,119.077461 241.030075,129.159241 246.001495,139.603210 
	C246.182968,142.539429 246.016464,144.917175 242.402985,145.182022 
z"/>
<path fill="#8CC0FD" opacity="1.000000" stroke="none" 
	d="
M202.608093,91.100204 
	C203.044128,92.787018 203.012527,94.389648 202.946991,96.385742 
	C196.554657,96.937622 190.196609,97.084068 183.451660,96.162323 
	C183.036575,94.444839 183.037247,92.795425 183.041687,90.736778 
	C189.410461,90.557045 195.775452,90.786537 202.608093,91.100204 
z"/>
<path fill="#1D2128" opacity="1.000000" stroke="none" 
	d="
M310.853516,240.680511 
	C315.350281,249.700333 320.654266,258.067230 323.819641,267.177216 
	C328.453186,280.512482 335.851318,292.579163 340.347137,305.890045 
	C342.725616,312.932129 344.981537,320.159180 341.045197,327.894928 
	C337.860901,322.449585 334.844147,316.638672 331.563843,310.573364 
	C328.908081,309.553711 328.441193,307.243591 327.442780,305.405914 
	C319.917908,291.555847 313.243011,277.279449 306.319366,263.128113 
	C302.382568,255.081635 297.987244,247.264816 294.115112,238.774872 
	C290.933350,232.142670 287.700958,225.946930 284.584351,219.693466 
	C283.776947,218.073380 282.649567,216.551041 283.009491,214.297882 
	C291.287964,213.555969 295.812500,219.095673 300.515808,224.268723 
	C301.390869,225.231171 301.804871,226.630066 303.658264,226.952530 
	C306.234863,231.454086 308.469757,235.906937 310.853516,240.680511 
z"/>
<path fill="#CCE0FB" opacity="1.000000" stroke="none" 
	d="
M242.180267,145.283936 
	C244.604904,144.591904 244.085678,141.686005 245.872360,140.271515 
	C249.746078,147.204926 253.467773,154.444458 257.464386,161.890350 
	C265.018921,176.812027 272.299561,191.526855 279.573364,206.245056 
	C279.792511,206.688431 279.940704,207.166855 280.194641,207.958817 
	C280.463989,210.647400 280.836304,213.078110 277.437378,214.068390 
	C274.412018,210.893234 273.109497,207.075928 271.324310,203.539658 
	C261.591400,184.259918 251.957275,164.930313 242.180267,145.283936 
z"/>
<path fill="#DDEAFA" opacity="1.000000" stroke="none" 
	d="
M277.046326,214.356262 
	C279.167358,213.036438 278.944214,210.651627 280.123352,208.653595 
	C281.182831,209.964310 282.098297,211.639954 283.123718,213.659576 
	C287.148773,221.746399 291.063873,229.489258 295.002319,237.593903 
	C295.146362,240.378647 294.449310,242.190247 291.330078,242.228546 
	C285.685730,233.254944 281.467010,223.944473 277.046326,214.356262 
z"/>
<path fill="#141D2B" opacity="1.000000" stroke="none" 
	d="
M258.320129,323.674652 
	C255.269119,325.195831 252.772766,324.737030 250.448151,322.702972 
	C248.288467,320.813232 245.793655,319.664856 242.407532,320.001648 
	C235.430756,311.740845 230.660263,302.498444 227.020676,292.626404 
	C225.931549,289.672211 224.835800,286.691528 222.296066,284.169830 
	C221.997025,283.251495 221.998718,282.500580 222.001419,281.374207 
	C225.189697,277.328156 229.631577,278.567139 234.019348,278.040955 
	C236.897507,278.458862 237.967606,280.404144 238.894257,282.358063 
	C243.173630,291.381653 248.350723,299.936462 252.897736,309.243744 
	C254.781296,314.220428 258.579071,318.040955 258.320129,323.674652 
z"/>
<path fill="#8CC0FD" opacity="1.000000" stroke="none" 
	d="
M175.111984,199.355652 
	C179.097214,190.357513 183.193481,181.713837 187.923492,171.732849 
	C198.393707,192.489639 208.180466,211.891495 218.056320,231.646439 
	C217.332001,233.742538 217.780426,236.031876 215.498718,237.420090 
	C212.338654,237.443115 211.513153,235.172638 210.207016,232.906647 
	C203.883041,219.882965 197.413940,207.336700 191.101059,194.712692 
	C190.384583,193.279953 190.075302,190.996048 188.324997,190.892471 
	C186.401199,190.778625 186.314728,193.209869 185.469345,194.546387 
	C183.727417,197.300217 183.140213,200.857117 179.498199,202.599670 
	C177.184753,202.546661 175.999786,201.398254 175.111984,199.355652 
z"/>
<path fill="#EEF4FD" opacity="1.000000" stroke="none" 
	d="
M291.038757,242.369659 
	C293.226410,241.896835 292.985229,239.220139 294.827576,238.224365 
	C303.358795,254.523499 311.688171,271.093201 320.026794,287.658264 
	C323.721130,294.997192 327.434143,302.326721 331.219482,309.989716 
	C330.500519,311.676971 330.342682,313.809875 328.196594,313.697266 
	C326.331818,313.599365 325.498901,311.948669 324.753448,310.450073 
	C313.525360,287.878723 302.307312,265.302338 291.038757,242.369659 
z"/>
<path fill="#B1D3FC" opacity="1.000000" stroke="none" 
	d="
M214.287994,237.512817 
	C216.835724,236.329605 215.065369,233.042160 217.767365,232.081451 
	C225.773849,245.656006 232.789062,259.630066 239.726166,273.644958 
	C244.447159,283.182617 249.192154,292.708374 253.988327,302.593719 
	C255.415512,305.771942 255.649506,308.371460 252.128662,310.217529 
	C246.363220,299.854340 241.057098,289.590576 235.472610,279.123535 
	C233.399979,278.124969 232.516449,276.538177 231.682709,274.900269 
	C226.053696,263.841858 220.737122,252.626038 214.932953,241.655792 
	C214.306335,240.471466 213.828506,239.243240 214.287994,237.512817 
z"/>
<path fill="#1D2128" opacity="1.000000" stroke="none" 
	d="
M289.391998,348.058411 
	C286.064728,345.232910 281.099152,344.710785 280.006775,339.531433 
	C281.214478,337.412537 283.092560,337.269409 284.886230,337.531982 
	C288.330566,338.036072 291.816040,337.835419 295.717773,338.346771 
	C305.922394,338.151367 315.738190,336.718658 325.626648,340.482025 
	C328.713104,340.841888 331.413940,340.924713 334.559204,341.085876 
	C333.392181,345.145081 329.661591,346.719208 326.144012,347.649231 
	C314.121826,350.827881 301.945831,351.372070 289.391998,348.058411 
z"/>
<path fill="#6DACFB" opacity="1.000000" stroke="none" 
	d="
M174.774719,199.263809 
	C176.931580,199.012909 177.266632,201.128891 179.005051,201.959335 
	C180.871277,206.066422 178.662643,208.819107 175.935837,211.658508 
	C167.959885,227.082443 160.368866,242.377304 152.522400,257.901306 
	C149.065643,258.024719 148.758682,255.741791 148.768738,252.895813 
	C152.253784,243.420258 157.139053,235.080505 161.231934,226.367767 
	C165.477539,217.329880 170.094147,208.466263 174.774719,199.263809 
z"/>
<path fill="#4F9AFC" opacity="1.000000" stroke="none" 
	d="
M148.615479,252.731186 
	C149.828659,254.214066 150.763885,255.950714 151.983032,257.908936 
	C151.688812,259.548615 151.110687,260.966797 150.442780,262.699097 
	C143.460129,276.953217 136.567261,290.893250 129.406281,305.069061 
	C127.950882,303.670105 128.430069,301.003632 125.625877,300.102844 
	C132.976135,284.355225 140.656815,268.670105 148.615479,252.731186 
z"/>
<path fill="#CCE0FB" opacity="1.000000" stroke="none" 
	d="
M251.761765,310.469849 
	C253.575760,308.409546 253.831802,306.096405 254.025955,303.349854 
	C258.707550,308.510468 260.793365,315.479218 264.274841,321.685852 
	C265.740540,324.298798 266.992401,327.032257 268.323517,329.719879 
	C269.151428,331.391571 269.940033,333.086548 272.597168,333.047241 
	C274.413788,334.604767 274.674316,336.296204 273.321228,338.502441 
	C268.176605,339.984985 265.284607,337.589386 263.274200,333.528320 
	C261.758118,330.465820 260.190857,327.428589 258.368530,324.178101 
	C256.011871,319.591248 253.933029,315.206421 251.761765,310.469849 
z"/>
<path fill="#EEF4FD" opacity="1.000000" stroke="none" 
	d="
M326.000275,340.389343 
	C316.335480,339.969147 306.637726,339.944183 296.476746,339.885986 
	C294.474915,338.281555 294.369415,336.581482 295.692230,334.382751 
	C304.175415,334.308105 312.374939,333.463715 320.583069,334.841644 
	C324.055969,335.424652 325.493317,336.923553 326.000275,340.389343 
z"/>
<path fill="#DDEAFA" opacity="1.000000" stroke="none" 
	d="
M295.526215,334.017426 
	C295.990631,335.675049 295.999725,337.328430 296.011780,339.395081 
	C290.904388,340.676819 285.924896,339.029022 280.427856,339.097565 
	C277.955811,339.113281 275.916107,339.051575 273.444641,338.918762 
	C273.004425,337.194397 272.995911,335.541199 272.977753,333.477661 
	C280.383728,332.260284 287.677765,334.294952 295.526215,334.017426 
z"/>
<path fill="#06153E" opacity="1.000000" stroke="none" 
	d="
M175.884567,211.950821 
	C176.791809,208.816010 178.032684,205.844406 179.294128,202.494492 
	C183.342361,197.666245 184.465164,191.511734 188.364838,186.203201 
	C196.099884,201.475342 203.577087,216.238358 211.096130,231.349060 
	C211.531769,234.575989 209.182098,235.462936 207.048584,236.980927 
	C203.000549,238.119217 199.365372,239.577347 195.288269,237.330750 
	C190.762512,233.120834 189.076523,227.233231 184.338287,223.691040 
	C181.832458,221.817734 182.211502,218.121338 180.197174,215.856445 
	C178.991928,214.501297 177.552414,213.354492 175.884567,211.950821 
z"/>
<path fill="#061331" opacity="1.000000" stroke="none" 
	d="
M194.733276,237.255783 
	C198.793289,237.585541 202.394913,235.975952 206.571747,236.001801 
	C207.760010,236.379898 208.506958,236.928192 208.711487,237.698456 
	C210.926819,246.041351 215.293762,253.796860 215.560852,262.670044 
	C215.601028,264.004639 215.409271,265.292725 214.319244,266.718231 
	C211.745956,267.250366 210.023514,266.120239 209.012650,264.382050 
	C204.700363,256.966919 197.464188,255.145493 189.408203,254.001953 
	C189.133408,251.826294 188.683151,249.756699 188.146851,247.651672 
	C186.323013,240.493088 187.299622,239.008850 194.733276,237.255783 
z"/>
<path fill="#0B1933" opacity="1.000000" stroke="none" 
	d="
M214.064362,267.337128 
	C213.715164,260.635437 213.495743,254.406097 210.011749,248.554840 
	C207.992905,245.164261 208.749954,240.554642 207.011597,236.395294 
	C207.747391,234.240372 209.458130,233.452148 210.956573,231.981430 
	C212.107513,233.355576 213.077042,235.014420 214.245605,236.921051 
	C221.318314,250.847946 228.192017,264.527069 235.129974,278.563232 
	C231.289200,280.901550 226.793182,279.320160 222.417877,280.984741 
	C219.144775,276.695251 217.614029,271.608063 214.064362,267.337128 
z"/>
</svg>